<svg xmlns="http://www.w3.org/2000/svg" xmlns:svg="http://www.w3.org/2000/svg" id="svg5864" width="297mm" height="210mm" version="1.1" viewBox="0 0 1052.362 744.094" xml:space="preserve"><metadata id="metadata5870"/><defs id="defs5868"><marker id="marker5451" orient="auto" refX="0" refY="0" style="overflow:visible"><path id="path5453" d="M 8.7185878,4.0337352 L -2.2072895,0.016013256 L 8.7185884,-4.0017078 C 6.9730900,-1.6296469 6.9831476,1.6157441 8.7185878,4.0337352 z" transform="scale(1.1) rotate(180) translate(1,0)" style="fill-rule:evenodd;stroke-width:.625;stroke-linejoin:round;stroke:#000;stroke-opacity:1;fill:#000;fill-opacity:1"/></marker><marker style="overflow:visible" id="marker55731" orient="auto" refX="0" refY="0"><path style="fill-rule:evenodd;stroke-width:.625;stroke-linejoin:round;stroke:#000;stroke-opacity:1;fill:#000;fill-opacity:1" id="path55733" d="M 8.7185878,4.0337352 L -2.2072895,0.016013256 L 8.7185884,-4.0017078 C 6.9730900,-1.6296469 6.9831476,1.6157441 8.7185878,4.0337352 z" transform="scale(1.1) rotate(180) translate(1,0)"/></marker><marker style="overflow:visible" id="marker54791" orient="auto" refX="0" refY="0"><path style="fill-rule:evenodd;stroke-width:.625;stroke-linejoin:round;stroke:#000;stroke-opacity:1;fill:#000;fill-opacity:1" id="path54793" d="M 8.7185878,4.0337352 L -2.2072895,0.016013256 L 8.7185884,-4.0017078 C 6.9730900,-1.6296469 6.9831476,1.6157441 8.7185878,4.0337352 z" transform="scale(1.1) rotate(180) translate(1,0)"/></marker><marker id="marker53839" orient="auto" refX="0" refY="0" style="overflow:visible"><path id="path53841" d="M 8.7185878,4.0337352 L -2.2072895,0.016013256 L 8.7185884,-4.0017078 C 6.9730900,-1.6296469 6.9831476,1.6157441 8.7185878,4.0337352 z" transform="scale(1.1) rotate(180) translate(1,0)" style="fill-rule:evenodd;stroke-width:.625;stroke-linejoin:round;stroke:#000;stroke-opacity:1;fill:#000;fill-opacity:1"/></marker><marker id="marker52923" orient="auto" refX="0" refY="0" style="overflow:visible"><path id="path52925" d="M 8.7185878,4.0337352 L -2.2072895,0.016013256 L 8.7185884,-4.0017078 C 6.9730900,-1.6296469 6.9831476,1.6157441 8.7185878,4.0337352 z" transform="scale(1.1) rotate(180) translate(1,0)" style="fill-rule:evenodd;stroke-width:.625;stroke-linejoin:round;stroke:#000;stroke-opacity:1;fill:#000;fill-opacity:1"/></marker><marker style="overflow:visible" id="marker51995" orient="auto" refX="0" refY="0"><path style="fill-rule:evenodd;stroke-width:.625;stroke-linejoin:round;stroke:#000;stroke-opacity:1;fill:#000;fill-opacity:1" id="path51997" d="M 8.7185878,4.0337352 L -2.2072895,0.016013256 L 8.7185884,-4.0017078 C 6.9730900,-1.6296469 6.9831476,1.6157441 8.7185878,4.0337352 z" transform="scale(1.1) rotate(180) translate(1,0)"/></marker><marker style="overflow:visible" id="marker51103" orient="auto" refX="0" refY="0"><path style="fill-rule:evenodd;stroke-width:.625;stroke-linejoin:round;stroke:#000;stroke-opacity:1;fill:#000;fill-opacity:1" id="path51105" d="M 8.7185878,4.0337352 L -2.2072895,0.016013256 L 8.7185884,-4.0017078 C 6.9730900,-1.6296469 6.9831476,1.6157441 8.7185878,4.0337352 z" transform="scale(1.1) rotate(180) translate(1,0)"/></marker><marker id="marker50199" orient="auto" refX="0" refY="0" style="overflow:visible"><path id="path50201" d="M 8.7185878,4.0337352 L -2.2072895,0.016013256 L 8.7185884,-4.0017078 C 6.9730900,-1.6296469 6.9831476,1.6157441 8.7185878,4.0337352 z" transform="scale(1.1) rotate(180) translate(1,0)" style="fill-rule:evenodd;stroke-width:.625;stroke-linejoin:round;stroke:#000;stroke-opacity:1;fill:#000;fill-opacity:1"/></marker><marker id="marker49331" orient="auto" refX="0" refY="0" style="overflow:visible"><path id="path49333" d="M 8.7185878,4.0337352 L -2.2072895,0.016013256 L 8.7185884,-4.0017078 C 6.9730900,-1.6296469 6.9831476,1.6157441 8.7185878,4.0337352 z" transform="scale(1.1) rotate(180) translate(1,0)" style="fill-rule:evenodd;stroke-width:.625;stroke-linejoin:round;stroke:#000;stroke-opacity:1;fill:#000;fill-opacity:1"/></marker><marker style="overflow:visible" id="marker42659" orient="auto" refX="0" refY="0"><path style="fill-rule:evenodd;stroke-width:.625;stroke-linejoin:round;stroke:#000;stroke-opacity:1;fill:#000;fill-opacity:1" id="path42661" d="M 8.7185878,4.0337352 L -2.2072895,0.016013256 L 8.7185884,-4.0017078 C 6.9730900,-1.6296469 6.9831476,1.6157441 8.7185878,4.0337352 z" transform="scale(1.1) rotate(180) translate(1,0)"/></marker><marker style="overflow:visible" id="marker41680" orient="auto" refX="0" refY="0"><path style="fill-rule:evenodd;stroke-width:.625;stroke-linejoin:round;stroke:#000;stroke-opacity:1;fill:#000;fill-opacity:1" id="path41682" d="M 8.7185878,4.0337352 L -2.2072895,0.016013256 L 8.7185884,-4.0017078 C 6.9730900,-1.6296469 6.9831476,1.6157441 8.7185878,4.0337352 z" transform="scale(1.1) rotate(180) translate(1,0)"/></marker><marker style="overflow:visible" id="marker40788" orient="auto" refX="0" refY="0"><path style="fill-rule:evenodd;stroke-width:.625;stroke-linejoin:round;stroke:#000;stroke-opacity:1;fill:#000;fill-opacity:1" id="path40790" d="M 8.7185878,4.0337352 L -2.2072895,0.016013256 L 8.7185884,-4.0017078 C 6.9730900,-1.6296469 6.9831476,1.6157441 8.7185878,4.0337352 z" transform="scale(1.1) rotate(180) translate(1,0)"/></marker><marker id="marker39010" orient="auto" refX="0" refY="0" style="overflow:visible"><path id="path39012" d="M 8.7185878,4.0337352 L -2.2072895,0.016013256 L 8.7185884,-4.0017078 C 6.9730900,-1.6296469 6.9831476,1.6157441 8.7185878,4.0337352 z" transform="scale(1.1) rotate(180) translate(1,0)" style="fill-rule:evenodd;stroke-width:.625;stroke-linejoin:round;stroke:#000;stroke-opacity:1;fill:#000;fill-opacity:1"/></marker><marker id="marker38154" orient="auto" refX="0" refY="0" style="overflow:visible"><path id="path38156" d="M 8.7185878,4.0337352 L -2.2072895,0.016013256 L 8.7185884,-4.0017078 C 6.9730900,-1.6296469 6.9831476,1.6157441 8.7185878,4.0337352 z" transform="scale(1.1) rotate(180) translate(1,0)" style="fill-rule:evenodd;stroke-width:.625;stroke-linejoin:round;stroke:#000;stroke-opacity:1;fill:#000;fill-opacity:1"/></marker><marker id="marker37310" orient="auto" refX="0" refY="0" style="overflow:visible"><path id="path37312" d="M 8.7185878,4.0337352 L -2.2072895,0.016013256 L 8.7185884,-4.0017078 C 6.9730900,-1.6296469 6.9831476,1.6157441 8.7185878,4.0337352 z" transform="scale(1.1) rotate(180) translate(1,0)" style="fill-rule:evenodd;stroke-width:.625;stroke-linejoin:round;stroke:#000;stroke-opacity:1;fill:#000;fill-opacity:1"/></marker><marker id="marker36478" orient="auto" refX="0" refY="0" style="overflow:visible"><path id="path36480" d="M 8.7185878,4.0337352 L -2.2072895,0.016013256 L 8.7185884,-4.0017078 C 6.9730900,-1.6296469 6.9831476,1.6157441 8.7185878,4.0337352 z" transform="scale(1.1) rotate(180) translate(1,0)" style="fill-rule:evenodd;stroke-width:.625;stroke-linejoin:round;stroke:#000;stroke-opacity:1;fill:#000;fill-opacity:1"/></marker><marker id="marker35658" orient="auto" refX="0" refY="0" style="overflow:visible"><path id="path35660" d="M 8.7185878,4.0337352 L -2.2072895,0.016013256 L 8.7185884,-4.0017078 C 6.9730900,-1.6296469 6.9831476,1.6157441 8.7185878,4.0337352 z" transform="scale(1.1) rotate(180) translate(1,0)" style="fill-rule:evenodd;stroke-width:.625;stroke-linejoin:round;stroke:#000;stroke-opacity:1;fill:#000;fill-opacity:1"/></marker><marker style="overflow:visible" id="marker34026" orient="auto" refX="0" refY="0"><path style="fill-rule:evenodd;stroke-width:.625;stroke-linejoin:round;stroke:#000;stroke-opacity:1;fill:#000;fill-opacity:1" id="path34028" d="M 8.7185878,4.0337352 L -2.2072895,0.016013256 L 8.7185884,-4.0017078 C 6.9730900,-1.6296469 6.9831476,1.6157441 8.7185878,4.0337352 z" transform="scale(1.1) rotate(180) translate(1,0)"/></marker><marker style="overflow:visible" id="marker33242" orient="auto" refX="0" refY="0"><path style="fill-rule:evenodd;stroke-width:.625;stroke-linejoin:round;stroke:#000;stroke-opacity:1;fill:#000;fill-opacity:1" id="path33244" d="M 8.7185878,4.0337352 L -2.2072895,0.016013256 L 8.7185884,-4.0017078 C 6.9730900,-1.6296469 6.9831476,1.6157441 8.7185878,4.0337352 z" transform="scale(1.1) rotate(180) translate(1,0)"/></marker><marker style="overflow:visible" id="marker32470" orient="auto" refX="0" refY="0"><path style="fill-rule:evenodd;stroke-width:.625;stroke-linejoin:round;stroke:#000;stroke-opacity:1;fill:#000;fill-opacity:1" id="path32472" d="M 8.7185878,4.0337352 L -2.2072895,0.016013256 L 8.7185884,-4.0017078 C 6.9730900,-1.6296469 6.9831476,1.6157441 8.7185878,4.0337352 z" transform="scale(1.1) rotate(180) translate(1,0)"/></marker><marker id="marker30760" orient="auto" refX="0" refY="0" style="overflow:visible"><path id="path30762" d="M 8.7185878,4.0337352 L -2.2072895,0.016013256 L 8.7185884,-4.0017078 C 6.9730900,-1.6296469 6.9831476,1.6157441 8.7185878,4.0337352 z" transform="scale(1.1) rotate(180) translate(1,0)" style="fill-rule:evenodd;stroke-width:.625;stroke-linejoin:round;stroke:#000;stroke-opacity:1;fill:#000;fill-opacity:1"/></marker><marker style="overflow:visible" id="marker29260" orient="auto" refX="0" refY="0"><path style="fill-rule:evenodd;stroke-width:.625;stroke-linejoin:round;stroke:#000;stroke-opacity:1;fill:#000;fill-opacity:1" id="path29262" d="M 8.7185878,4.0337352 L -2.2072895,0.016013256 L 8.7185884,-4.0017078 C 6.9730900,-1.6296469 6.9831476,1.6157441 8.7185878,4.0337352 z" transform="scale(1.1) rotate(180) translate(1,0)"/></marker><marker style="overflow:visible" id="marker28548" orient="auto" refX="0" refY="0"><path style="fill-rule:evenodd;stroke-width:.625;stroke-linejoin:round;stroke:#000;stroke-opacity:1;fill:#000;fill-opacity:1" id="path28550" d="M 8.7185878,4.0337352 L -2.2072895,0.016013256 L 8.7185884,-4.0017078 C 6.9730900,-1.6296469 6.9831476,1.6157441 8.7185878,4.0337352 z" transform="scale(1.1) rotate(180) translate(1,0)"/></marker><marker style="overflow:visible" id="marker27848" orient="auto" refX="0" refY="0"><path style="fill-rule:evenodd;stroke-width:.625;stroke-linejoin:round;stroke:#000;stroke-opacity:1;fill:#000;fill-opacity:1" id="path27850" d="M 8.7185878,4.0337352 L -2.2072895,0.016013256 L 8.7185884,-4.0017078 C 6.9730900,-1.6296469 6.9831476,1.6157441 8.7185878,4.0337352 z" transform="scale(1.1) rotate(180) translate(1,0)"/></marker><marker style="overflow:visible" id="marker27160" orient="auto" refX="0" refY="0"><path style="fill-rule:evenodd;stroke-width:.625;stroke-linejoin:round;stroke:#000;stroke-opacity:1;fill:#000;fill-opacity:1" id="path27162" d="M 8.7185878,4.0337352 L -2.2072895,0.016013256 L 8.7185884,-4.0017078 C 6.9730900,-1.6296469 6.9831476,1.6157441 8.7185878,4.0337352 z" transform="scale(1.1) rotate(180) translate(1,0)"/></marker><marker style="overflow:visible" id="marker26484" orient="auto" refX="0" refY="0"><path style="fill-rule:evenodd;stroke-width:.625;stroke-linejoin:round;stroke:#000;stroke-opacity:1;fill:#000;fill-opacity:1" id="path26486" d="M 8.7185878,4.0337352 L -2.2072895,0.016013256 L 8.7185884,-4.0017078 C 6.9730900,-1.6296469 6.9831476,1.6157441 8.7185878,4.0337352 z" transform="scale(1.1) rotate(180) translate(1,0)"/></marker><marker style="overflow:visible" id="marker25820" orient="auto" refX="0" refY="0"><path style="fill-rule:evenodd;stroke-width:.625;stroke-linejoin:round;stroke:#000;stroke-opacity:1;fill:#000;fill-opacity:1" id="path25822" d="M 8.7185878,4.0337352 L -2.2072895,0.016013256 L 8.7185884,-4.0017078 C 6.9730900,-1.6296469 6.9831476,1.6157441 8.7185878,4.0337352 z" transform="scale(1.1) rotate(180) translate(1,0)"/></marker><marker style="overflow:visible" id="marker25168" orient="auto" refX="0" refY="0"><path style="fill-rule:evenodd;stroke-width:.625;stroke-linejoin:round;stroke:#000;stroke-opacity:1;fill:#000;fill-opacity:1" id="path25170" d="M 8.7185878,4.0337352 L -2.2072895,0.016013256 L 8.7185884,-4.0017078 C 6.9730900,-1.6296469 6.9831476,1.6157441 8.7185878,4.0337352 z" transform="scale(1.1) rotate(180) translate(1,0)"/></marker><marker style="overflow:visible" id="marker24528" orient="auto" refX="0" refY="0"><path style="fill-rule:evenodd;stroke-width:.625;stroke-linejoin:round;stroke:#000;stroke-opacity:1;fill:#000;fill-opacity:1" id="path24530" d="M 8.7185878,4.0337352 L -2.2072895,0.016013256 L 8.7185884,-4.0017078 C 6.9730900,-1.6296469 6.9831476,1.6157441 8.7185878,4.0337352 z" transform="scale(1.1) rotate(180) translate(1,0)"/></marker><marker style="overflow:visible" id="marker23900" orient="auto" refX="0" refY="0"><path style="fill-rule:evenodd;stroke-width:.625;stroke-linejoin:round;stroke:#000;stroke-opacity:1;fill:#000;fill-opacity:1" id="path23902" d="M 8.7185878,4.0337352 L -2.2072895,0.016013256 L 8.7185884,-4.0017078 C 6.9730900,-1.6296469 6.9831476,1.6157441 8.7185878,4.0337352 z" transform="scale(1.1) rotate(180) translate(1,0)"/></marker><marker style="overflow:visible" id="marker23284" orient="auto" refX="0" refY="0"><path style="fill-rule:evenodd;stroke-width:.625;stroke-linejoin:round;stroke:#000;stroke-opacity:1;fill:#000;fill-opacity:1" id="path23286" d="M 8.7185878,4.0337352 L -2.2072895,0.016013256 L 8.7185884,-4.0017078 C 6.9730900,-1.6296469 6.9831476,1.6157441 8.7185878,4.0337352 z" transform="scale(1.1) rotate(180) translate(1,0)"/></marker><marker style="overflow:visible" id="marker22680" orient="auto" refX="0" refY="0"><path style="fill-rule:evenodd;stroke-width:.625;stroke-linejoin:round;stroke:#000;stroke-opacity:1;fill:#000;fill-opacity:1" id="path22682" d="M 8.7185878,4.0337352 L -2.2072895,0.016013256 L 8.7185884,-4.0017078 C 6.9730900,-1.6296469 6.9831476,1.6157441 8.7185878,4.0337352 z" transform="scale(1.1) rotate(180) translate(1,0)"/></marker><marker style="overflow:visible" id="marker22088" orient="auto" refX="0" refY="0"><path style="fill-rule:evenodd;stroke-width:.625;stroke-linejoin:round;stroke:#000;stroke-opacity:1;fill:#000;fill-opacity:1" id="path22090" d="M 8.7185878,4.0337352 L -2.2072895,0.016013256 L 8.7185884,-4.0017078 C 6.9730900,-1.6296469 6.9831476,1.6157441 8.7185878,4.0337352 z" transform="scale(1.1) rotate(180) translate(1,0)"/></marker><marker style="overflow:visible" id="marker21508" orient="auto" refX="0" refY="0"><path style="fill-rule:evenodd;stroke-width:.625;stroke-linejoin:round;stroke:#000;stroke-opacity:1;fill:#000;fill-opacity:1" id="path21510" d="M 8.7185878,4.0337352 L -2.2072895,0.016013256 L 8.7185884,-4.0017078 C 6.9730900,-1.6296469 6.9831476,1.6157441 8.7185878,4.0337352 z" transform="scale(1.1) rotate(180) translate(1,0)"/></marker><marker style="overflow:visible" id="marker20940" orient="auto" refX="0" refY="0"><path style="fill-rule:evenodd;stroke-width:.625;stroke-linejoin:round;stroke:#000;stroke-opacity:1;fill:#000;fill-opacity:1" id="path20942" d="M 8.7185878,4.0337352 L -2.2072895,0.016013256 L 8.7185884,-4.0017078 C 6.9730900,-1.6296469 6.9831476,1.6157441 8.7185878,4.0337352 z" transform="scale(1.1) rotate(180) translate(1,0)"/></marker><marker style="overflow:visible" id="marker20384" orient="auto" refX="0" refY="0"><path style="fill-rule:evenodd;stroke-width:.625;stroke-linejoin:round;stroke:#000;stroke-opacity:1;fill:#000;fill-opacity:1" id="path20386" d="M 8.7185878,4.0337352 L -2.2072895,0.016013256 L 8.7185884,-4.0017078 C 6.9730900,-1.6296469 6.9831476,1.6157441 8.7185878,4.0337352 z" transform="scale(1.1) rotate(180) translate(1,0)"/></marker><marker style="overflow:visible" id="marker19840" orient="auto" refX="0" refY="0"><path style="fill-rule:evenodd;stroke-width:.625;stroke-linejoin:round;stroke:#000;stroke-opacity:1;fill:#000;fill-opacity:1" id="path19842" d="M 8.7185878,4.0337352 L -2.2072895,0.016013256 L 8.7185884,-4.0017078 C 6.9730900,-1.6296469 6.9831476,1.6157441 8.7185878,4.0337352 z" transform="scale(1.1) rotate(180) translate(1,0)"/></marker><marker style="overflow:visible" id="marker19308" orient="auto" refX="0" refY="0"><path style="fill-rule:evenodd;stroke-width:.625;stroke-linejoin:round;stroke:#000;stroke-opacity:1;fill:#000;fill-opacity:1" id="path19310" d="M 8.7185878,4.0337352 L -2.2072895,0.016013256 L 8.7185884,-4.0017078 C 6.9730900,-1.6296469 6.9831476,1.6157441 8.7185878,4.0337352 z" transform="scale(1.1) rotate(180) translate(1,0)"/></marker><marker style="overflow:visible" id="marker18788" orient="auto" refX="0" refY="0"><path style="fill-rule:evenodd;stroke-width:.625;stroke-linejoin:round;stroke:#000;stroke-opacity:1;fill:#000;fill-opacity:1" id="path18790" d="M 8.7185878,4.0337352 L -2.2072895,0.016013256 L 8.7185884,-4.0017078 C 6.9730900,-1.6296469 6.9831476,1.6157441 8.7185878,4.0337352 z" transform="scale(1.1) rotate(180) translate(1,0)"/></marker><marker style="overflow:visible" id="marker18280" orient="auto" refX="0" refY="0"><path style="fill-rule:evenodd;stroke-width:.625;stroke-linejoin:round;stroke:#000;stroke-opacity:1;fill:#000;fill-opacity:1" id="path18282" d="M 8.7185878,4.0337352 L -2.2072895,0.016013256 L 8.7185884,-4.0017078 C 6.9730900,-1.6296469 6.9831476,1.6157441 8.7185878,4.0337352 z" transform="scale(1.1) rotate(180) translate(1,0)"/></marker><marker style="overflow:visible" id="marker17784" orient="auto" refX="0" refY="0"><path style="fill-rule:evenodd;stroke-width:.625;stroke-linejoin:round;stroke:#000;stroke-opacity:1;fill:#000;fill-opacity:1" id="path17786" d="M 8.7185878,4.0337352 L -2.2072895,0.016013256 L 8.7185884,-4.0017078 C 6.9730900,-1.6296469 6.9831476,1.6157441 8.7185878,4.0337352 z" transform="scale(1.1) rotate(180) translate(1,0)"/></marker><marker style="overflow:visible" id="marker17300" orient="auto" refX="0" refY="0"><path style="fill-rule:evenodd;stroke-width:.625;stroke-linejoin:round;stroke:#000;stroke-opacity:1;fill:#000;fill-opacity:1" id="path17302" d="M 8.7185878,4.0337352 L -2.2072895,0.016013256 L 8.7185884,-4.0017078 C 6.9730900,-1.6296469 6.9831476,1.6157441 8.7185878,4.0337352 z" transform="scale(1.1) rotate(180) translate(1,0)"/></marker><marker id="marker16334" orient="auto" refX="0" refY="0" style="overflow:visible"><path id="path16336" d="M 8.7185878,4.0337352 L -2.2072895,0.016013256 L 8.7185884,-4.0017078 C 6.9730900,-1.6296469 6.9831476,1.6157441 8.7185878,4.0337352 z" transform="scale(1.1) rotate(180) translate(1,0)" style="fill-rule:evenodd;stroke-width:.625;stroke-linejoin:round;stroke:#000;stroke-opacity:1;fill:#000;fill-opacity:1"/></marker><marker id="marker15886" orient="auto" refX="0" refY="0" style="overflow:visible"><path id="path15888" d="M 8.7185878,4.0337352 L -2.2072895,0.016013256 L 8.7185884,-4.0017078 C 6.9730900,-1.6296469 6.9831476,1.6157441 8.7185878,4.0337352 z" transform="scale(1.1) rotate(180) translate(1,0)" style="fill-rule:evenodd;stroke-width:.625;stroke-linejoin:round;stroke:#000;stroke-opacity:1;fill:#000;fill-opacity:1"/></marker><marker id="marker15450" orient="auto" refX="0" refY="0" style="overflow:visible"><path id="path15452" d="M 8.7185878,4.0337352 L -2.2072895,0.016013256 L 8.7185884,-4.0017078 C 6.9730900,-1.6296469 6.9831476,1.6157441 8.7185878,4.0337352 z" transform="scale(1.1) rotate(180) translate(1,0)" style="fill-rule:evenodd;stroke-width:.625;stroke-linejoin:round;stroke:#000;stroke-opacity:1;fill:#000;fill-opacity:1"/></marker><marker id="marker15026" orient="auto" refX="0" refY="0" style="overflow:visible"><path id="path15028" d="M 8.7185878,4.0337352 L -2.2072895,0.016013256 L 8.7185884,-4.0017078 C 6.9730900,-1.6296469 6.9831476,1.6157441 8.7185878,4.0337352 z" transform="scale(1.1) rotate(180) translate(1,0)" style="fill-rule:evenodd;stroke-width:.625;stroke-linejoin:round;stroke:#000;stroke-opacity:1;fill:#000;fill-opacity:1"/></marker><marker id="marker14614" orient="auto" refX="0" refY="0" style="overflow:visible"><path id="path14616" d="M 8.7185878,4.0337352 L -2.2072895,0.016013256 L 8.7185884,-4.0017078 C 6.9730900,-1.6296469 6.9831476,1.6157441 8.7185878,4.0337352 z" transform="scale(1.1) rotate(180) translate(1,0)" style="fill-rule:evenodd;stroke-width:.625;stroke-linejoin:round;stroke:#000;stroke-opacity:1;fill:#000;fill-opacity:1"/></marker><marker id="marker14214" orient="auto" refX="0" refY="0" style="overflow:visible"><path id="path14216" d="M 8.7185878,4.0337352 L -2.2072895,0.016013256 L 8.7185884,-4.0017078 C 6.9730900,-1.6296469 6.9831476,1.6157441 8.7185878,4.0337352 z" transform="scale(1.1) rotate(180) translate(1,0)" style="fill-rule:evenodd;stroke-width:.625;stroke-linejoin:round;stroke:#000;stroke-opacity:1;fill:#000;fill-opacity:1"/></marker><marker id="marker13826" orient="auto" refX="0" refY="0" style="overflow:visible"><path id="path13828" d="M 8.7185878,4.0337352 L -2.2072895,0.016013256 L 8.7185884,-4.0017078 C 6.9730900,-1.6296469 6.9831476,1.6157441 8.7185878,4.0337352 z" transform="scale(1.1) rotate(180) translate(1,0)" style="fill-rule:evenodd;stroke-width:.625;stroke-linejoin:round;stroke:#000;stroke-opacity:1;fill:#000;fill-opacity:1"/></marker><marker id="marker13450" orient="auto" refX="0" refY="0" style="overflow:visible"><path id="path13452" d="M 8.7185878,4.0337352 L -2.2072895,0.016013256 L 8.7185884,-4.0017078 C 6.9730900,-1.6296469 6.9831476,1.6157441 8.7185878,4.0337352 z" transform="scale(1.1) rotate(180) translate(1,0)" style="fill-rule:evenodd;stroke-width:.625;stroke-linejoin:round;stroke:#000;stroke-opacity:1;fill:#000;fill-opacity:1"/></marker><marker id="marker13086" orient="auto" refX="0" refY="0" style="overflow:visible"><path id="path13088" d="M 8.7185878,4.0337352 L -2.2072895,0.016013256 L 8.7185884,-4.0017078 C 6.9730900,-1.6296469 6.9831476,1.6157441 8.7185878,4.0337352 z" transform="scale(1.1) rotate(180) translate(1,0)" style="fill-rule:evenodd;stroke-width:.625;stroke-linejoin:round;stroke:#000;stroke-opacity:1;fill:#000;fill-opacity:1"/></marker><marker id="marker12734" orient="auto" refX="0" refY="0" style="overflow:visible"><path id="path12736" d="M 8.7185878,4.0337352 L -2.2072895,0.016013256 L 8.7185884,-4.0017078 C 6.9730900,-1.6296469 6.9831476,1.6157441 8.7185878,4.0337352 z" transform="scale(1.1) rotate(180) translate(1,0)" style="fill-rule:evenodd;stroke-width:.625;stroke-linejoin:round;stroke:#000;stroke-opacity:1;fill:#000;fill-opacity:1"/></marker><marker id="marker12394" orient="auto" refX="0" refY="0" style="overflow:visible"><path id="path12396" d="M 8.7185878,4.0337352 L -2.2072895,0.016013256 L 8.7185884,-4.0017078 C 6.9730900,-1.6296469 6.9831476,1.6157441 8.7185878,4.0337352 z" transform="scale(1.1) rotate(180) translate(1,0)" style="fill-rule:evenodd;stroke-width:.625;stroke-linejoin:round;stroke:#000;stroke-opacity:1;fill:#000;fill-opacity:1"/></marker><marker id="marker12066" orient="auto" refX="0" refY="0" style="overflow:visible"><path id="path12068" d="M 8.7185878,4.0337352 L -2.2072895,0.016013256 L 8.7185884,-4.0017078 C 6.9730900,-1.6296469 6.9831476,1.6157441 8.7185878,4.0337352 z" transform="scale(1.1) rotate(180) translate(1,0)" style="fill-rule:evenodd;stroke-width:.625;stroke-linejoin:round;stroke:#000;stroke-opacity:1;fill:#000;fill-opacity:1"/></marker><marker id="marker11750" orient="auto" refX="0" refY="0" style="overflow:visible"><path id="path11752" d="M 8.7185878,4.0337352 L -2.2072895,0.016013256 L 8.7185884,-4.0017078 C 6.9730900,-1.6296469 6.9831476,1.6157441 8.7185878,4.0337352 z" transform="scale(1.1) rotate(180) translate(1,0)" style="fill-rule:evenodd;stroke-width:.625;stroke-linejoin:round;stroke:#000;stroke-opacity:1;fill:#000;fill-opacity:1"/></marker><marker id="marker11446" orient="auto" refX="0" refY="0" style="overflow:visible"><path id="path11448" d="M 8.7185878,4.0337352 L -2.2072895,0.016013256 L 8.7185884,-4.0017078 C 6.9730900,-1.6296469 6.9831476,1.6157441 8.7185878,4.0337352 z" transform="scale(1.1) rotate(180) translate(1,0)" style="fill-rule:evenodd;stroke-width:.625;stroke-linejoin:round;stroke:#000;stroke-opacity:1;fill:#000;fill-opacity:1"/></marker><marker id="marker11154" orient="auto" refX="0" refY="0" style="overflow:visible"><path id="path11156" d="M 8.7185878,4.0337352 L -2.2072895,0.016013256 L 8.7185884,-4.0017078 C 6.9730900,-1.6296469 6.9831476,1.6157441 8.7185878,4.0337352 z" transform="scale(1.1) rotate(180) translate(1,0)" style="fill-rule:evenodd;stroke-width:.625;stroke-linejoin:round;stroke:#000;stroke-opacity:1;fill:#000;fill-opacity:1"/></marker><marker id="marker10874" orient="auto" refX="0" refY="0" style="overflow:visible"><path id="path10876" d="M 8.7185878,4.0337352 L -2.2072895,0.016013256 L 8.7185884,-4.0017078 C 6.9730900,-1.6296469 6.9831476,1.6157441 8.7185878,4.0337352 z" transform="scale(1.1) rotate(180) translate(1,0)" style="fill-rule:evenodd;stroke-width:.625;stroke-linejoin:round;stroke:#000;stroke-opacity:1;fill:#000;fill-opacity:1"/></marker><marker id="marker10606" orient="auto" refX="0" refY="0" style="overflow:visible"><path id="path10608" d="M 8.7185878,4.0337352 L -2.2072895,0.016013256 L 8.7185884,-4.0017078 C 6.9730900,-1.6296469 6.9831476,1.6157441 8.7185878,4.0337352 z" transform="scale(1.1) rotate(180) translate(1,0)" style="fill-rule:evenodd;stroke-width:.625;stroke-linejoin:round;stroke:#000;stroke-opacity:1;fill:#000;fill-opacity:1"/></marker><marker id="marker10350" orient="auto" refX="0" refY="0" style="overflow:visible"><path id="path10352" d="M 8.7185878,4.0337352 L -2.2072895,0.016013256 L 8.7185884,-4.0017078 C 6.9730900,-1.6296469 6.9831476,1.6157441 8.7185878,4.0337352 z" transform="scale(1.1) rotate(180) translate(1,0)" style="fill-rule:evenodd;stroke-width:.625;stroke-linejoin:round;stroke:#000;stroke-opacity:1;fill:#000;fill-opacity:1"/></marker><marker id="marker10106" orient="auto" refX="0" refY="0" style="overflow:visible"><path id="path10108" d="M 8.7185878,4.0337352 L -2.2072895,0.016013256 L 8.7185884,-4.0017078 C 6.9730900,-1.6296469 6.9831476,1.6157441 8.7185878,4.0337352 z" transform="scale(1.1) rotate(180) translate(1,0)" style="fill-rule:evenodd;stroke-width:.625;stroke-linejoin:round;stroke:#000;stroke-opacity:1;fill:#000;fill-opacity:1"/></marker><marker id="marker9874" orient="auto" refX="0" refY="0" style="overflow:visible"><path id="path9876" d="M 8.7185878,4.0337352 L -2.2072895,0.016013256 L 8.7185884,-4.0017078 C 6.9730900,-1.6296469 6.9831476,1.6157441 8.7185878,4.0337352 z" transform="scale(1.1) rotate(180) translate(1,0)" style="fill-rule:evenodd;stroke-width:.625;stroke-linejoin:round;stroke:#000;stroke-opacity:1;fill:#000;fill-opacity:1"/></marker><marker id="marker9654" orient="auto" refX="0" refY="0" style="overflow:visible"><path id="path9656" d="M 8.7185878,4.0337352 L -2.2072895,0.016013256 L 8.7185884,-4.0017078 C 6.9730900,-1.6296469 6.9831476,1.6157441 8.7185878,4.0337352 z" transform="scale(1.1) rotate(180) translate(1,0)" style="fill-rule:evenodd;stroke-width:.625;stroke-linejoin:round;stroke:#000;stroke-opacity:1;fill:#000;fill-opacity:1"/></marker><marker id="marker9446" orient="auto" refX="0" refY="0" style="overflow:visible"><path id="path9448" d="M 8.7185878,4.0337352 L -2.2072895,0.016013256 L 8.7185884,-4.0017078 C 6.9730900,-1.6296469 6.9831476,1.6157441 8.7185878,4.0337352 z" transform="scale(1.1) rotate(180) translate(1,0)" style="fill-rule:evenodd;stroke-width:.625;stroke-linejoin:round;stroke:#000;stroke-opacity:1;fill:#000;fill-opacity:1"/></marker><marker id="marker9250" orient="auto" refX="0" refY="0" style="overflow:visible"><path id="path9252" d="M 8.7185878,4.0337352 L -2.2072895,0.016013256 L 8.7185884,-4.0017078 C 6.9730900,-1.6296469 6.9831476,1.6157441 8.7185878,4.0337352 z" transform="scale(1.1) rotate(180) translate(1,0)" style="fill-rule:evenodd;stroke-width:.625;stroke-linejoin:round;stroke:#000;stroke-opacity:1;fill:#000;fill-opacity:1"/></marker><marker id="marker9066" orient="auto" refX="0" refY="0" style="overflow:visible"><path id="path9068" d="M 8.7185878,4.0337352 L -2.2072895,0.016013256 L 8.7185884,-4.0017078 C 6.9730900,-1.6296469 6.9831476,1.6157441 8.7185878,4.0337352 z" transform="scale(1.1) rotate(180) translate(1,0)" style="fill-rule:evenodd;stroke-width:.625;stroke-linejoin:round;stroke:#000;stroke-opacity:1;fill:#000;fill-opacity:1"/></marker><marker id="marker8894" orient="auto" refX="0" refY="0" style="overflow:visible"><path id="path8896" d="M 8.7185878,4.0337352 L -2.2072895,0.016013256 L 8.7185884,-4.0017078 C 6.9730900,-1.6296469 6.9831476,1.6157441 8.7185878,4.0337352 z" transform="scale(1.1) rotate(180) translate(1,0)" style="fill-rule:evenodd;stroke-width:.625;stroke-linejoin:round;stroke:#000;stroke-opacity:1;fill:#000;fill-opacity:1"/></marker><marker id="marker8734" orient="auto" refX="0" refY="0" style="overflow:visible"><path id="path8736" d="M 8.7185878,4.0337352 L -2.2072895,0.016013256 L 8.7185884,-4.0017078 C 6.9730900,-1.6296469 6.9831476,1.6157441 8.7185878,4.0337352 z" transform="scale(1.1) rotate(180) translate(1,0)" style="fill-rule:evenodd;stroke-width:.625;stroke-linejoin:round;stroke:#000;stroke-opacity:1;fill:#000;fill-opacity:1"/></marker><marker id="marker8586" orient="auto" refX="0" refY="0" style="overflow:visible"><path id="path8588" d="M 8.7185878,4.0337352 L -2.2072895,0.016013256 L 8.7185884,-4.0017078 C 6.9730900,-1.6296469 6.9831476,1.6157441 8.7185878,4.0337352 z" transform="scale(1.1) rotate(180) translate(1,0)" style="fill-rule:evenodd;stroke-width:.625;stroke-linejoin:round;stroke:#000;stroke-opacity:1;fill:#000;fill-opacity:1"/></marker><marker id="marker8450" orient="auto" refX="0" refY="0" style="overflow:visible"><path id="path8452" d="M 8.7185878,4.0337352 L -2.2072895,0.016013256 L 8.7185884,-4.0017078 C 6.9730900,-1.6296469 6.9831476,1.6157441 8.7185878,4.0337352 z" transform="scale(1.1) rotate(180) translate(1,0)" style="fill-rule:evenodd;stroke-width:.625;stroke-linejoin:round;stroke:#000;stroke-opacity:1;fill:#000;fill-opacity:1"/></marker><marker id="marker8326" orient="auto" refX="0" refY="0" style="overflow:visible"><path id="path8328" d="M 8.7185878,4.0337352 L -2.2072895,0.016013256 L 8.7185884,-4.0017078 C 6.9730900,-1.6296469 6.9831476,1.6157441 8.7185878,4.0337352 z" transform="scale(1.1) rotate(180) translate(1,0)" style="fill-rule:evenodd;stroke-width:.625;stroke-linejoin:round;stroke:#000;stroke-opacity:1;fill:#000;fill-opacity:1"/></marker><marker id="marker8214" orient="auto" refX="0" refY="0" style="overflow:visible"><path id="path8216" d="M 8.7185878,4.0337352 L -2.2072895,0.016013256 L 8.7185884,-4.0017078 C 6.9730900,-1.6296469 6.9831476,1.6157441 8.7185878,4.0337352 z" transform="scale(1.1) rotate(180) translate(1,0)" style="fill-rule:evenodd;stroke-width:.625;stroke-linejoin:round;stroke:#000;stroke-opacity:1;fill:#000;fill-opacity:1"/></marker><marker id="marker8114" orient="auto" refX="0" refY="0" style="overflow:visible"><path id="path8116" d="M 8.7185878,4.0337352 L -2.2072895,0.016013256 L 8.7185884,-4.0017078 C 6.9730900,-1.6296469 6.9831476,1.6157441 8.7185878,4.0337352 z" transform="scale(1.1) rotate(180) translate(1,0)" style="fill-rule:evenodd;stroke-width:.625;stroke-linejoin:round;stroke:#000;stroke-opacity:1;fill:#000;fill-opacity:1"/></marker><marker id="marker8026" orient="auto" refX="0" refY="0" style="overflow:visible"><path id="path8028" d="M 8.7185878,4.0337352 L -2.2072895,0.016013256 L 8.7185884,-4.0017078 C 6.9730900,-1.6296469 6.9831476,1.6157441 8.7185878,4.0337352 z" transform="scale(1.1) rotate(180) translate(1,0)" style="fill-rule:evenodd;stroke-width:.625;stroke-linejoin:round;stroke:#000;stroke-opacity:1;fill:#000;fill-opacity:1"/></marker><marker id="marker7950" orient="auto" refX="0" refY="0" style="overflow:visible"><path id="path7952" d="M 8.7185878,4.0337352 L -2.2072895,0.016013256 L 8.7185884,-4.0017078 C 6.9730900,-1.6296469 6.9831476,1.6157441 8.7185878,4.0337352 z" transform="scale(1.1) rotate(180) translate(1,0)" style="fill-rule:evenodd;stroke-width:.625;stroke-linejoin:round;stroke:#000;stroke-opacity:1;fill:#000;fill-opacity:1"/></marker><marker id="marker7886" orient="auto" refX="0" refY="0" style="overflow:visible"><path id="path7888" d="M 8.7185878,4.0337352 L -2.2072895,0.016013256 L 8.7185884,-4.0017078 C 6.9730900,-1.6296469 6.9831476,1.6157441 8.7185878,4.0337352 z" transform="scale(1.1) rotate(180) translate(1,0)" style="fill-rule:evenodd;stroke-width:.625;stroke-linejoin:round;stroke:#000;stroke-opacity:1;fill:#000;fill-opacity:1"/></marker><marker id="marker7834" orient="auto" refX="0" refY="0" style="overflow:visible"><path id="path7836" d="M 8.7185878,4.0337352 L -2.2072895,0.016013256 L 8.7185884,-4.0017078 C 6.9730900,-1.6296469 6.9831476,1.6157441 8.7185878,4.0337352 z" transform="scale(1.1) rotate(180) translate(1,0)" style="fill-rule:evenodd;stroke-width:.625;stroke-linejoin:round;stroke:#000;stroke-opacity:1;fill:#000;fill-opacity:1"/></marker><marker style="overflow:visible" id="marker7768" orient="auto" refX="0" refY="0"><path style="fill-rule:evenodd;stroke-width:.625;stroke-linejoin:round;stroke:#000;stroke-opacity:1;fill:#000;fill-opacity:1" id="path7770" d="M 8.7185878,4.0337352 L -2.2072895,0.016013256 L 8.7185884,-4.0017078 C 6.9730900,-1.6296469 6.9831476,1.6157441 8.7185878,4.0337352 z" transform="scale(1.1) rotate(180) translate(1,0)"/></marker><marker style="overflow:visible" id="Arrow2Lend" orient="auto" refX="0" refY="0"><path style="fill-rule:evenodd;stroke-width:.625;stroke-linejoin:round;stroke:#000;stroke-opacity:1;fill:#000;fill-opacity:1" id="path7513" d="M 8.7185878,4.0337352 L -2.2072895,0.016013256 L 8.7185884,-4.0017078 C 6.9730900,-1.6296469 6.9831476,1.6157441 8.7185878,4.0337352 z" transform="scale(1.1) rotate(180) translate(1,0)"/></marker></defs><g id="g5872" transform="matrix(1.25,0,0,-1.25,0,744.09449)"><g id="g42584"><g style="stroke:#00c600;stroke-opacity:1" id="g7310" transform="translate(164.29067,223.4237)"><g style="stroke:#00c600;stroke-opacity:1" id="g7312" transform="matrix(1,0,0,-1,0,265)"><path id="path7314" d="m 425.457,15.34 c -10.215,0 -18.555,3.019 -19.141,6.84 -0.789,1.394 -0.031,7.961 -0.031,8.929 0,0.118 0.016,0.231 0.031,0.344 l 0,0.031 c -0.789,1.399 -0.031,7.961 -0.031,8.934 0,0.113 0.016,0.23 0.031,0.344 l 0,0.062 c -0.789,1.395 -0.031,7.926 -0.031,8.899 0,4.023 8.574,7.304 19.172,7.304 10.598,0 19.207,-3.281 19.207,-7.304 0,-0.668 0.262,-5.938 0,-8.246 0.008,-0.086 0,-0.161 0,-0.25 0,-0.137 -0.043,-0.27 -0.062,-0.403 0.019,-0.136 0.062,-0.269 0.062,-0.406 0,-0.672 0.262,-5.941 0,-8.246 0.008,-0.086 0,-0.16 0,-0.25 0,-0.137 -0.043,-0.27 -0.062,-0.406 0.019,-0.133 0.062,-0.27 0.062,-0.407 0,-0.668 0.262,-5.937 0,-8.242 0.008,-0.086 0,-0.164 0,-0.25 0,-4.023 -8.609,-7.277 -19.207,-7.277 z" style="fill:#fff;fill-opacity:1;fill-rule:evenodd;stroke:#00c600;stroke-width:2.99779391;stroke-linecap:butt;stroke-linejoin:miter;stroke-miterlimit:4;stroke-dasharray:none;stroke-opacity:1"/></g><g style="stroke:#00c600;stroke-opacity:1" id="g7316" transform="matrix(1,0,0,-1,0,265)"><path id="path7318" d="m 444.645,22.676 c 0,4.023 -8.594,7.285 -19.192,7.285 -10.598,0 -19.187,-3.262 -19.187,-7.285" style="fill:none;stroke:#00c600;stroke-width:1.99852896;stroke-linecap:butt;stroke-linejoin:miter;stroke-miterlimit:4;stroke-dasharray:none;stroke-opacity:1"/></g><g style="stroke:#00c600;stroke-opacity:1" id="g7320" transform="matrix(1,0,0,-1,0,265)"><path id="path7322" d="m 444.941,32.668 c 0,4.023 -8.589,7.285 -19.187,7.285 -10.598,0 -19.188,-3.262 -19.188,-7.285" style="fill:none;stroke:#00c600;stroke-width:1.99852896;stroke-linecap:butt;stroke-linejoin:miter;stroke-miterlimit:4;stroke-dasharray:none;stroke-opacity:1"/></g><g style="stroke:#00c600;stroke-opacity:1" id="g7324" transform="matrix(1,0,0,-1,0,265)"><path id="path7326" d="m 444.645,42.66 c 0,4.024 -8.594,7.285 -19.192,7.285 -10.598,0 -19.187,-3.261 -19.187,-7.285" style="fill:none;stroke:#00c600;stroke-width:1.99852896;stroke-linecap:butt;stroke-linejoin:miter;stroke-miterlimit:4;stroke-dasharray:none;stroke-opacity:1"/></g></g><g id="g7328" transform="translate(163.40911,157.3135)" style="stroke:#00c600;stroke-opacity:1"><g id="g7330" transform="matrix(1,0,0,-1,0,265)" style="stroke:#00c600;stroke-opacity:1"><path style="fill:#fff;fill-opacity:1;fill-rule:evenodd;stroke:#00c600;stroke-width:2.99779391;stroke-linecap:butt;stroke-linejoin:miter;stroke-miterlimit:4;stroke-dasharray:none;stroke-opacity:1" id="path7332" d="m 425.457,15.34 c -10.215,0 -18.555,3.019 -19.141,6.84 -0.789,1.394 -0.031,7.961 -0.031,8.929 0,0.118 0.016,0.231 0.031,0.344 l 0,0.031 c -0.789,1.399 -0.031,7.961 -0.031,8.934 0,0.113 0.016,0.23 0.031,0.344 l 0,0.062 c -0.789,1.395 -0.031,7.926 -0.031,8.899 0,4.023 8.574,7.304 19.172,7.304 10.598,0 19.207,-3.281 19.207,-7.304 0,-0.668 0.262,-5.938 0,-8.246 0.008,-0.086 0,-0.161 0,-0.25 0,-0.137 -0.043,-0.27 -0.062,-0.403 0.019,-0.136 0.062,-0.269 0.062,-0.406 0,-0.672 0.262,-5.941 0,-8.246 0.008,-0.086 0,-0.16 0,-0.25 0,-0.137 -0.043,-0.27 -0.062,-0.406 0.019,-0.133 0.062,-0.27 0.062,-0.407 0,-0.668 0.262,-5.937 0,-8.242 0.008,-0.086 0,-0.164 0,-0.25 0,-4.023 -8.609,-7.277 -19.207,-7.277 z"/></g><g id="g7334" transform="matrix(1,0,0,-1,0,265)" style="stroke:#00c600;stroke-opacity:1"><path style="fill:none;stroke:#00c600;stroke-width:1.99852896;stroke-linecap:butt;stroke-linejoin:miter;stroke-miterlimit:4;stroke-dasharray:none;stroke-opacity:1" id="path7336" d="m 444.645,22.676 c 0,4.023 -8.594,7.285 -19.192,7.285 -10.598,0 -19.187,-3.262 -19.187,-7.285"/></g><g id="g7338" transform="matrix(1,0,0,-1,0,265)" style="stroke:#00c600;stroke-opacity:1"><path style="fill:none;stroke:#00c600;stroke-width:1.99852896;stroke-linecap:butt;stroke-linejoin:miter;stroke-miterlimit:4;stroke-dasharray:none;stroke-opacity:1" id="path7340" d="m 444.941,32.668 c 0,4.023 -8.589,7.285 -19.187,7.285 -10.598,0 -19.188,-3.262 -19.188,-7.285"/></g><g id="g7342" transform="matrix(1,0,0,-1,0,265)" style="stroke:#00c600;stroke-opacity:1"><path style="fill:none;stroke:#00c600;stroke-width:1.99852896;stroke-linecap:butt;stroke-linejoin:miter;stroke-miterlimit:4;stroke-dasharray:none;stroke-opacity:1" id="path7344" d="m 444.645,42.66 c 0,4.024 -8.594,7.285 -19.192,7.285 -10.598,0 -19.187,-3.261 -19.187,-7.285"/></g></g><g style="stroke:#00c600;stroke-opacity:1" id="g7346" transform="translate(163.40911,91.20334)"><g style="stroke:#00c600;stroke-opacity:1" id="g7348" transform="matrix(1,0,0,-1,0,265)"><path id="path7350" d="m 425.457,15.34 c -10.215,0 -18.555,3.019 -19.141,6.84 -0.789,1.394 -0.031,7.961 -0.031,8.929 0,0.118 0.016,0.231 0.031,0.344 l 0,0.031 c -0.789,1.399 -0.031,7.961 -0.031,8.934 0,0.113 0.016,0.23 0.031,0.344 l 0,0.062 c -0.789,1.395 -0.031,7.926 -0.031,8.899 0,4.023 8.574,7.304 19.172,7.304 10.598,0 19.207,-3.281 19.207,-7.304 0,-0.668 0.262,-5.938 0,-8.246 0.008,-0.086 0,-0.161 0,-0.25 0,-0.137 -0.043,-0.27 -0.062,-0.403 0.019,-0.136 0.062,-0.269 0.062,-0.406 0,-0.672 0.262,-5.941 0,-8.246 0.008,-0.086 0,-0.16 0,-0.25 0,-0.137 -0.043,-0.27 -0.062,-0.406 0.019,-0.133 0.062,-0.27 0.062,-0.407 0,-0.668 0.262,-5.937 0,-8.242 0.008,-0.086 0,-0.164 0,-0.25 0,-4.023 -8.609,-7.277 -19.207,-7.277 z" style="fill:#fff;fill-opacity:1;fill-rule:evenodd;stroke:#00c600;stroke-width:2.99779391;stroke-linecap:butt;stroke-linejoin:miter;stroke-miterlimit:4;stroke-dasharray:none;stroke-opacity:1"/></g><g style="stroke:#00c600;stroke-opacity:1" id="g7352" transform="matrix(1,0,0,-1,0,265)"><path id="path7354" d="m 444.645,22.676 c 0,4.023 -8.594,7.285 -19.192,7.285 -10.598,0 -19.187,-3.262 -19.187,-7.285" style="fill:none;stroke:#00c600;stroke-width:1.99852896;stroke-linecap:butt;stroke-linejoin:miter;stroke-miterlimit:4;stroke-dasharray:none;stroke-opacity:1"/></g><g style="stroke:#00c600;stroke-opacity:1" id="g7356" transform="matrix(1,0,0,-1,0,265)"><path id="path7358" d="m 444.941,32.668 c 0,4.023 -8.589,7.285 -19.187,7.285 -10.598,0 -19.188,-3.262 -19.188,-7.285" style="fill:none;stroke:#00c600;stroke-width:1.99852896;stroke-linecap:butt;stroke-linejoin:miter;stroke-miterlimit:4;stroke-dasharray:none;stroke-opacity:1"/></g><g style="stroke:#00c600;stroke-opacity:1" id="g7360" transform="matrix(1,0,0,-1,0,265)"><path id="path7362" d="m 444.645,42.66 c 0,4.024 -8.594,7.285 -19.192,7.285 -10.598,0 -19.187,-3.261 -19.187,-7.285" style="fill:none;stroke:#00c600;stroke-width:1.99852896;stroke-linecap:butt;stroke-linejoin:miter;stroke-miterlimit:4;stroke-dasharray:none;stroke-opacity:1"/></g></g><g id="g7364" transform="translate(163.40911,25.093184)" style="stroke:#00c600;stroke-opacity:1"><g id="g7366" transform="matrix(1,0,0,-1,0,265)" style="stroke:#00c600;stroke-opacity:1"><path style="fill:#fff;fill-opacity:1;fill-rule:evenodd;stroke:#00c600;stroke-width:2.99779391;stroke-linecap:butt;stroke-linejoin:miter;stroke-miterlimit:4;stroke-dasharray:none;stroke-opacity:1" id="path7368" d="m 425.457,15.34 c -10.215,0 -18.555,3.019 -19.141,6.84 -0.789,1.394 -0.031,7.961 -0.031,8.929 0,0.118 0.016,0.231 0.031,0.344 l 0,0.031 c -0.789,1.399 -0.031,7.961 -0.031,8.934 0,0.113 0.016,0.23 0.031,0.344 l 0,0.062 c -0.789,1.395 -0.031,7.926 -0.031,8.899 0,4.023 8.574,7.304 19.172,7.304 10.598,0 19.207,-3.281 19.207,-7.304 0,-0.668 0.262,-5.938 0,-8.246 0.008,-0.086 0,-0.161 0,-0.25 0,-0.137 -0.043,-0.27 -0.062,-0.403 0.019,-0.136 0.062,-0.269 0.062,-0.406 0,-0.672 0.262,-5.941 0,-8.246 0.008,-0.086 0,-0.16 0,-0.25 0,-0.137 -0.043,-0.27 -0.062,-0.406 0.019,-0.133 0.062,-0.27 0.062,-0.407 0,-0.668 0.262,-5.937 0,-8.242 0.008,-0.086 0,-0.164 0,-0.25 0,-4.023 -8.609,-7.277 -19.207,-7.277 z"/></g><g id="g7370" transform="matrix(1,0,0,-1,0,265)" style="stroke:#00c600;stroke-opacity:1"><path style="fill:none;stroke:#00c600;stroke-width:1.99852896;stroke-linecap:butt;stroke-linejoin:miter;stroke-miterlimit:4;stroke-dasharray:none;stroke-opacity:1" id="path7372" d="m 444.645,22.676 c 0,4.023 -8.594,7.285 -19.192,7.285 -10.598,0 -19.187,-3.262 -19.187,-7.285"/></g><g id="g7374" transform="matrix(1,0,0,-1,0,265)" style="stroke:#00c600;stroke-opacity:1"><path style="fill:none;stroke:#00c600;stroke-width:1.99852896;stroke-linecap:butt;stroke-linejoin:miter;stroke-miterlimit:4;stroke-dasharray:none;stroke-opacity:1" id="path7376" d="m 444.941,32.668 c 0,4.023 -8.589,7.285 -19.187,7.285 -10.598,0 -19.188,-3.262 -19.188,-7.285"/></g><g id="g7378" transform="matrix(1,0,0,-1,0,265)" style="stroke:#00c600;stroke-opacity:1"><path style="fill:none;stroke:#00c600;stroke-width:1.99852896;stroke-linecap:butt;stroke-linejoin:miter;stroke-miterlimit:4;stroke-dasharray:none;stroke-opacity:1" id="path7380" d="m 444.645,42.66 c 0,4.024 -8.594,7.285 -19.192,7.285 -10.598,0 -19.187,-3.261 -19.187,-7.285"/></g></g><text style="font-style:normal;font-variant:normal;font-weight:500;font-stretch:normal;font-size:16px;line-height:125%;font-family:Futura;-inkscape-font-specification:'Futura, Medium';text-align:start;letter-spacing:0;word-spacing:0;writing-mode:lr-tb;text-anchor:start;fill:#007000;fill-opacity:1;stroke:none;stroke-width:1px;stroke-linecap:butt;stroke-linejoin:miter;stroke-opacity:1" id="text7448" x="622.61" y="-447.569" transform="scale(1,-1)" xml:space="preserve"><tspan id="tspan7450" x="622.61" y="-447.569">CRAN package db</tspan></text><text id="text7452" x="623.892" y="-391.568" transform="scale(1,-1)" xml:space="preserve" style="font-style:normal;font-variant:normal;font-weight:500;font-stretch:normal;font-size:16px;line-height:125%;font-family:Futura;-inkscape-font-specification:'Futura, Medium';text-align:start;letter-spacing:0;word-spacing:0;writing-mode:lr-tb;text-anchor:start;fill:#007000;fill-opacity:1;stroke:none;stroke-width:1px;stroke-linecap:butt;stroke-linejoin:miter;stroke-opacity:1"><tspan id="tspan7454" x="623.892" y="-391.568">CRAN dependency</tspan><tspan id="tspan7482" x="623.892" y="-371.568">DB</tspan></text><text style="font-style:normal;font-variant:normal;font-weight:500;font-stretch:normal;font-size:16px;line-height:125%;font-family:Futura;-inkscape-font-specification:'Futura, Medium';text-align:start;letter-spacing:0;word-spacing:0;writing-mode:lr-tb;text-anchor:start;fill:#007000;fill-opacity:1;stroke:none;stroke-width:1px;stroke-linecap:butt;stroke-linejoin:miter;stroke-opacity:1" id="text7456" x="623.892" y="-325.968" transform="scale(1,-1)" xml:space="preserve"><tspan id="tspan7458" x="623.892" y="-325.968">System requirements</tspan><tspan id="tspan7484" x="623.892" y="-305.968">DB</tspan></text><text id="text7460" x="623.892" y="-249.168" transform="scale(1,-1)" xml:space="preserve" style="font-style:normal;font-variant:normal;font-weight:500;font-stretch:normal;font-size:16px;line-height:125%;font-family:Futura;-inkscape-font-specification:'Futura, Medium';text-align:start;letter-spacing:0;word-spacing:0;writing-mode:lr-tb;text-anchor:start;fill:#007000;fill-opacity:1;stroke:none;stroke-width:1px;stroke-linecap:butt;stroke-linejoin:miter;stroke-opacity:1"><tspan id="tspan7462" x="623.892" y="-249.168">R versions DB</tspan></text><g id="g32386" transform="translate(0.88155996,-32.357439)"><g id="g7382" transform="translate(723.29606,8.089996)" style="stroke:#00c600;stroke-opacity:1"><g id="g7384" transform="matrix(1,0,0,-1,-242.14379,276.89516)" style="stroke:#00c600;stroke-opacity:1"><path style="fill:#fff;fill-opacity:1;fill-rule:nonzero;stroke:#00c600;stroke-width:2.56601191;stroke-linecap:butt;stroke-linejoin:miter;stroke-miterlimit:4;stroke-dasharray:none;stroke-opacity:1" id="path7386" d="m 102.102,126.621 12.203,0 c 3.433,0 6.218,2.785 6.218,6.219 l 0,30.566 c 0,3.438 -2.785,6.223 -6.218,6.223 l -12.203,0 c -3.438,0 -6.223,-2.785 -6.223,-6.223 l 0,-30.566 c 0,-3.434 2.785,-6.219 6.223,-6.219 z"/></g><path style="fill:#555753;fill-opacity:1;fill-rule:nonzero;stroke:#00c600;stroke-opacity:1" id="path7388" d="m -129.50679,114.41816 0,3.368 c 0,0.754 0.613,1.363 1.367,1.363 l 2.215,0 c 0.758,0 1.367,-0.609 1.367,-1.363 l 0,-3.368 c 0,-0.753 -0.609,-1.367 -1.367,-1.367 l -2.215,0 c -0.754,0 -1.367,0.614 -1.367,1.367 z"/><path style="fill:#555753;fill-opacity:1;fill-rule:nonzero;stroke:#00c600;stroke-opacity:1" id="path7390" d="m -141.92879,143.09016 16.691,0 c 0.219,0 0.395,-0.175 0.395,-0.394 l 0,-1.031 c 0,-0.223 -0.176,-0.399 -0.395,-0.399 l -16.691,0 c -0.219,0 -0.399,0.176 -0.399,0.399 l 0,1.031 c 0,0.219 0.18,0.394 0.399,0.394 z"/><path style="fill:#555753;fill-opacity:1;fill-rule:nonzero;stroke:#00c600;stroke-opacity:1" id="path7392" d="m -141.92879,137.01616 16.691,0 c 0.219,0 0.395,-0.18 0.395,-0.398 l 0,-1.032 c 0,-0.218 -0.176,-0.394 -0.395,-0.394 l -16.691,0 c -0.219,0 -0.399,0.176 -0.399,0.394 l 0,1.032 c 0,0.218 0.18,0.398 0.399,0.398 z"/></g><text id="text7464" x="623.892" y="-137.167" transform="scale(1,-1)" xml:space="preserve" style="font-style:normal;font-variant:normal;font-weight:500;font-stretch:normal;font-size:16px;line-height:125%;font-family:Futura;-inkscape-font-specification:'Futura, Medium';text-align:start;letter-spacing:0;word-spacing:0;writing-mode:lr-tb;text-anchor:start;fill:#007000;fill-opacity:1;stroke:none;stroke-width:1px;stroke-linecap:butt;stroke-linejoin:miter;stroke-opacity:1"><tspan id="tspan7466" x="623.892" y="-137.167">Logging service</tspan></text></g><g id="g32396" transform="translate(0,-11.2)"><g style="stroke:#00c600;stroke-opacity:1" id="g7394" transform="translate(723.29606,-75.401483)"><g style="stroke:#00c600;stroke-opacity:1" id="g7396" transform="matrix(1,0,0,-1,-242.14379,276.89516)"><path id="path7398" d="m 102.102,126.621 12.203,0 c 3.433,0 6.218,2.785 6.218,6.219 l 0,30.566 c 0,3.438 -2.785,6.223 -6.218,6.223 l -12.203,0 c -3.438,0 -6.223,-2.785 -6.223,-6.223 l 0,-30.566 c 0,-3.434 2.785,-6.219 6.223,-6.219 z" style="fill:#fff;fill-opacity:1;fill-rule:nonzero;stroke:#00c600;stroke-width:2.56601191;stroke-linecap:butt;stroke-linejoin:miter;stroke-miterlimit:4;stroke-dasharray:none;stroke-opacity:1"/></g><path id="path7400" d="m -129.50679,114.41816 0,3.368 c 0,0.754 0.613,1.363 1.367,1.363 l 2.215,0 c 0.758,0 1.367,-0.609 1.367,-1.363 l 0,-3.368 c 0,-0.753 -0.609,-1.367 -1.367,-1.367 l -2.215,0 c -0.754,0 -1.367,0.614 -1.367,1.367 z" style="fill:#555753;fill-opacity:1;fill-rule:nonzero;stroke:#00c600;stroke-opacity:1"/><path id="path7402" d="m -141.92879,143.09016 16.691,0 c 0.219,0 0.395,-0.175 0.395,-0.394 l 0,-1.031 c 0,-0.223 -0.176,-0.399 -0.395,-0.399 l -16.691,0 c -0.219,0 -0.399,0.176 -0.399,0.399 l 0,1.031 c 0,0.219 0.18,0.394 0.399,0.394 z" style="fill:#555753;fill-opacity:1;fill-rule:nonzero;stroke:#00c600;stroke-opacity:1"/><path id="path7404" d="m -141.92879,137.01616 16.691,0 c 0.219,0 0.395,-0.18 0.395,-0.398 l 0,-1.032 c 0,-0.218 -0.176,-0.394 -0.395,-0.394 l -16.691,0 c -0.219,0 -0.399,0.176 -0.399,0.394 l 0,1.032 c 0,0.218 0.18,0.398 0.399,0.398 z" style="fill:#555753;fill-opacity:1;fill-rule:nonzero;stroke:#00c600;stroke-opacity:1"/></g><text style="font-style:normal;font-variant:normal;font-weight:500;font-stretch:normal;font-size:16px;line-height:125%;font-family:Futura;-inkscape-font-specification:'Futura, Medium';text-align:start;letter-spacing:0;word-spacing:0;writing-mode:lr-tb;text-anchor:start;fill:#007000;fill-opacity:1;stroke:none;stroke-width:1px;stroke-linecap:butt;stroke-linejoin:miter;stroke-opacity:1" id="text7468" x="623.892" y="-52.367" transform="scale(1,-1)" xml:space="preserve"><tspan id="tspan7470" x="623.892" y="-52.367">Monitoring service</tspan></text></g><g id="g32406" transform="translate(0.88155996,31.114878)"><g style="stroke:#00c600;stroke-opacity:1" id="g32408" transform="translate(723.29606,8.089996)"><g style="stroke:#00c600;stroke-opacity:1" id="g32410" transform="matrix(1,0,0,-1,-242.14379,276.89516)"><path id="path32412" d="m 102.102,126.621 12.203,0 c 3.433,0 6.218,2.785 6.218,6.219 l 0,30.566 c 0,3.438 -2.785,6.223 -6.218,6.223 l -12.203,0 c -3.438,0 -6.223,-2.785 -6.223,-6.223 l 0,-30.566 c 0,-3.434 2.785,-6.219 6.223,-6.219 z" style="fill:#fff;fill-opacity:1;fill-rule:nonzero;stroke:#00c600;stroke-width:2.56601191;stroke-linecap:butt;stroke-linejoin:miter;stroke-miterlimit:4;stroke-dasharray:none;stroke-opacity:1"/></g><path id="path32414" d="m -129.50679,114.41816 0,3.368 c 0,0.754 0.613,1.363 1.367,1.363 l 2.215,0 c 0.758,0 1.367,-0.609 1.367,-1.363 l 0,-3.368 c 0,-0.753 -0.609,-1.367 -1.367,-1.367 l -2.215,0 c -0.754,0 -1.367,0.614 -1.367,1.367 z" style="fill:#555753;fill-opacity:1;fill-rule:nonzero;stroke:#00c600;stroke-opacity:1"/><path id="path32416" d="m -141.92879,143.09016 16.691,0 c 0.219,0 0.395,-0.175 0.395,-0.394 l 0,-1.031 c 0,-0.223 -0.176,-0.399 -0.395,-0.399 l -16.691,0 c -0.219,0 -0.399,0.176 -0.399,0.399 l 0,1.031 c 0,0.219 0.18,0.394 0.399,0.394 z" style="fill:#555753;fill-opacity:1;fill-rule:nonzero;stroke:#00c600;stroke-opacity:1"/><path id="path32418" d="m -141.92879,137.01616 16.691,0 c 0.219,0 0.395,-0.18 0.395,-0.398 l 0,-1.032 c 0,-0.218 -0.176,-0.394 -0.395,-0.394 l -16.691,0 c -0.219,0 -0.399,0.176 -0.399,0.394 l 0,1.032 c 0,0.218 0.18,0.398 0.399,0.398 z" style="fill:#555753;fill-opacity:1;fill-rule:nonzero;stroke:#00c600;stroke-opacity:1"/></g><text style="font-style:normal;font-variant:normal;font-weight:500;font-stretch:normal;font-size:16px;line-height:125%;font-family:Futura;-inkscape-font-specification:'Futura, Medium';text-align:start;letter-spacing:0;word-spacing:0;writing-mode:lr-tb;text-anchor:start;fill:#007000;fill-opacity:1;stroke:none;stroke-width:1px;stroke-linecap:butt;stroke-linejoin:miter;stroke-opacity:1" id="text32420" x="623.892" y="-137.167" transform="scale(1,-1)" xml:space="preserve"><tspan id="tspan32422" x="623.892" y="-137.167">Mail server</tspan></text></g></g><g style="fill-rule:evenodd;stroke:#00c600;stroke-opacity:1" id="g6953" transform="translate(34.200217,233.73572)"><path id="path5876" d="m 25.184,129.473 c -2.852,0 -5.145,-2.293 -5.145,-5.145 l 0,-25.285 c 0,-0.543 0.074,-1.07 0.231,-1.559 l -5.52,0 c -2.391,0 -4.305,-1.023 -4.305,-2.285 0,-1.261 1.914,-2.281 4.305,-2.281 l 21.211,0 c 2.391,0 4.305,1.02 4.305,2.281 0,1.262 -1.914,2.285 -4.305,2.285 l -4.856,0 c 0.157,0.489 0.231,1.016 0.231,1.559 l 0,25.285 c 0,2.852 -2.293,5.145 -5.141,5.145 l -1.011,0 z" style="fill:#555753;fill-opacity:1;fill-rule:evenodd;stroke:#00c600;stroke-opacity:1"/><g style="fill-rule:evenodd;stroke:#00c600;stroke-opacity:1" id="g5878" transform="matrix(1,0,0,-1,0,265)"><path id="path5880" d="m 7.309,125.891 36.105,0 c 2.84,0 5.141,2.304 5.141,5.144 l 0,25.27 c 0,2.84 -2.301,5.14 -5.141,5.14 l -36.105,0 c -2.84,0 -5.145,-2.3 -5.145,-5.14 l 0,-25.27 c 0,-2.84 2.305,-5.144 5.145,-5.144 z" style="fill:#fff;fill-opacity:1;fill-rule:evenodd;stroke:#00c600;stroke-width:3.458951;stroke-linecap:butt;stroke-linejoin:miter;stroke-miterlimit:4;stroke-dasharray:none;stroke-opacity:1"/></g><g style="fill-rule:evenodd;stroke:#00c600;stroke-opacity:1" id="g5882" transform="matrix(1,0,0,-1,0,265)"><path id="path5884" d="m 7.883,130.008 33.863,0 c 1.215,0 2.203,0.984 2.203,2.199 l 0,16.32 c 0,1.219 -0.988,2.203 -2.203,2.203 l -33.863,0 c -1.219,0 -2.203,-0.984 -2.203,-2.203 l 0,-16.32 c 0,-1.215 0.984,-2.199 2.203,-2.199 z" style="fill:#555753;fill-opacity:1;fill-rule:evenodd;stroke:#00c600;stroke-width:2.39847112;stroke-linecap:butt;stroke-linejoin:miter;stroke-miterlimit:4;stroke-dasharray:none;stroke-opacity:1"/></g><path id="path5886" d="m 22.684,107.25 0,2.816 c 0,0.633 0.515,1.145 1.144,1.145 l 1.86,0 c 0.632,0 1.144,-0.512 1.144,-1.145 l 0,-2.816 c 0,-0.633 -0.512,-1.145 -1.144,-1.145 l -1.86,0 c -0.629,0 -1.144,0.512 -1.144,1.145 z" style="fill:#555753;fill-opacity:1;fill-rule:evenodd;stroke:#00c600;stroke-opacity:1"/><path id="path5888" d="m 8.281,132.812 34.16,0 c 0.332,0 0.602,-0.273 0.602,-0.605 l 0,-1.566 c 0,-0.332 -0.27,-0.606 -0.602,-0.606 l -34.16,0 c -0.336,0 -0.605,0.274 -0.605,0.606 l 0,1.566 c 0,0.332 0.269,0.605 0.605,0.605 z" style="fill:#fff;fill-opacity:1;fill-rule:evenodd;stroke:#00c600;stroke-opacity:1"/></g><g style="stroke:#00c600;stroke-opacity:1" id="g6853" transform="translate(-107.77553,122.88086)"><g style="stroke:#00c600;stroke-opacity:1" id="g6028" transform="matrix(1,0,0,-1,0,265)"><path id="path6030" d="m 397.332,149.691 1.996,-9.027 c 0,-1.066 1.496,-1.922 3.356,-1.922 l 45.464,0 c 1.86,0 3.356,0.856 3.356,1.922 l 1.996,9.027 c 0,1.067 -1.496,1.922 -3.352,1.922 l -49.464,0 c -1.856,0 -3.352,-0.855 -3.352,-1.922 z" style="fill:#fff;fill-opacity:1;fill-rule:nonzero;stroke:#00c600;stroke-width:2.99779391;stroke-linecap:butt;stroke-linejoin:miter;stroke-miterlimit:4;stroke-dasharray:none;stroke-opacity:1"/></g><g style="stroke:#00c600;stroke-opacity:1" id="g6032" transform="matrix(1,0,0,-1,0,265)"><path id="path6034" d="m 397.332,161.375 0,-10.508 c 0,-1.242 1.496,-2.238 3.352,-2.238 l 49.464,0 c 1.856,0 3.352,0.996 3.352,2.238 l 0,10.508 c 0,1.238 -1.496,2.234 -3.352,2.234 l -49.464,0 c -1.856,0 -3.352,-0.996 -3.352,-2.234 z" style="fill:#fff;fill-opacity:1;fill-rule:nonzero;stroke:#00c600;stroke-width:2.99779391;stroke-linecap:butt;stroke-linejoin:miter;stroke-miterlimit:4;stroke-dasharray:none;stroke-opacity:1"/></g><path id="path6036" d="m 448.797,111.598 c 0,-0.789 -0.668,-1.426 -1.488,-1.426 -0.825,0 -1.493,0.637 -1.493,1.426 0,0.785 0.668,1.422 1.493,1.422 0.82,0 1.488,-0.637 1.488,-1.422 z" style="fill:#555753;fill-opacity:1;fill-rule:evenodd;stroke:#00c600;stroke-opacity:1"/><path id="path6038" d="m 400.43,112.789 c -0.082,0 -0.153,-0.133 -0.18,-0.312 -0.012,-0.059 -0.016,-0.118 -0.016,-0.188 0,-0.008 0,-0.019 0,-0.031 l 0,-2.903 c 0,-0.277 0.086,-0.5 0.196,-0.5 l 12.511,0 c 0.106,0 0.192,0.223 0.192,0.5 l 0,2.903 c 0,0.07 0,0.16 -0.012,0.219 -0.031,0.179 -0.101,0.312 -0.18,0.312 l -12.511,0 z" style="fill:#555753;fill-opacity:1;fill-rule:nonzero;stroke:#00c600;stroke-opacity:1"/><path id="path6040" d="m 415.219,112.98 c -0.082,0 -0.153,-0.132 -0.18,-0.312 -0.012,-0.063 -0.016,-0.117 -0.016,-0.188 0,-0.011 0,-0.023 0,-0.031 l 0,-2.906 c 0,-0.277 0.086,-0.5 0.196,-0.5 l 12.511,0 c 0.106,0 0.192,0.223 0.192,0.5 l 0,2.906 c 0,0.071 0,0.156 -0.012,0.219 -0.031,0.18 -0.101,0.312 -0.18,0.312 l -12.511,0 z" style="fill:#555753;fill-opacity:1;fill-rule:nonzero;stroke:#00c600;stroke-opacity:1"/><path id="path6042" d="m 443.902,111.656 c 0,-0.785 -0.668,-1.426 -1.492,-1.426 -0.824,0 -1.492,0.641 -1.492,1.426 0,0.785 0.668,1.426 1.492,1.426 0.824,0 1.492,-0.641 1.492,-1.426 z" style="fill:#555753;fill-opacity:1;fill-rule:evenodd;stroke:#00c600;stroke-opacity:1"/><g style="stroke:#00c600;stroke-opacity:1" id="g6046" transform="matrix(1,0,0,-1,0,265)"><path id="path6048" d="m 397.332,129.707 1.996,-9.027 c 0,-1.067 1.496,-1.922 3.356,-1.922 l 45.464,0 c 1.86,0 3.356,0.855 3.356,1.922 l 1.996,9.027 c 0,1.063 -1.496,1.922 -3.352,1.922 l -49.464,0 c -1.856,0 -3.352,-0.859 -3.352,-1.922 z" style="fill:#fff;fill-opacity:1;fill-rule:nonzero;stroke:#00c600;stroke-width:2.99779391;stroke-linecap:butt;stroke-linejoin:miter;stroke-miterlimit:4;stroke-dasharray:none;stroke-opacity:1"/></g><g style="stroke:#00c600;stroke-opacity:1" id="g6050" transform="matrix(1,0,0,-1,0,265)"><path id="path6052" d="m 397.332,141.387 0,-10.508 c 0,-1.238 1.496,-2.234 3.352,-2.234 l 49.464,0 c 1.856,0 3.352,0.996 3.352,2.234 l 0,10.508 c 0,1.242 -1.496,2.238 -3.352,2.238 l -49.464,0 c -1.856,0 -3.352,-0.996 -3.352,-2.238 z" style="fill:#fff;fill-opacity:1;fill-rule:nonzero;stroke:#00c600;stroke-width:2.99779391;stroke-linecap:butt;stroke-linejoin:miter;stroke-miterlimit:4;stroke-dasharray:none;stroke-opacity:1"/></g><path id="path6054" d="m 448.797,131.582 c 0,-0.785 -0.668,-1.426 -1.488,-1.426 -0.825,0 -1.493,0.641 -1.493,1.426 0,0.785 0.668,1.422 1.493,1.422 0.82,0 1.488,-0.637 1.488,-1.422 z" style="fill:#555753;fill-opacity:1;fill-rule:evenodd;stroke:#00c600;stroke-opacity:1"/><path id="path6056" d="m 400.43,132.773 c -0.082,0 -0.153,-0.128 -0.18,-0.312 -0.012,-0.059 -0.016,-0.117 -0.016,-0.188 0,-0.007 0,-0.019 0,-0.031 l 0,-2.902 c 0,-0.278 0.086,-0.5 0.196,-0.5 l 12.511,0 c 0.106,0 0.192,0.222 0.192,0.5 l 0,2.902 c 0,0.07 0,0.16 -0.012,0.219 -0.031,0.184 -0.101,0.312 -0.18,0.312 l -12.511,0 z" style="fill:#555753;fill-opacity:1;fill-rule:nonzero;stroke:#00c600;stroke-opacity:1"/><path id="path6058" d="m 415.219,132.965 c -0.082,0 -0.153,-0.133 -0.18,-0.313 -0.012,-0.058 -0.016,-0.117 -0.016,-0.187 0,-0.012 0,-0.02 0,-0.031 l 0,-2.903 c 0,-0.277 0.086,-0.5 0.196,-0.5 l 12.511,0 c 0.106,0 0.192,0.223 0.192,0.5 l 0,2.903 c 0,0.07 0,0.16 -0.012,0.218 -0.031,0.18 -0.101,0.313 -0.18,0.313 l -12.511,0 z" style="fill:#555753;fill-opacity:1;fill-rule:nonzero;stroke:#00c600;stroke-opacity:1"/><path id="path6060" d="m 443.902,131.641 c 0,-0.786 -0.668,-1.422 -1.492,-1.422 -0.824,0 -1.492,0.636 -1.492,1.422 0,0.789 0.668,1.425 1.492,1.425 0.824,0 1.492,-0.636 1.492,-1.425 z" style="fill:#555753;fill-opacity:1;fill-rule:evenodd;stroke:#00c600;stroke-opacity:1"/></g><g style="stroke:#00c600;stroke-opacity:1" id="g6843" transform="translate(-234.43115,122.11378)"><g style="stroke:#00c600;stroke-opacity:1" id="g6128" transform="matrix(1,0,0,-1,0,265)"><path id="path6130" d="m 425.457,15.34 c -10.215,0 -18.555,3.019 -19.141,6.84 -0.789,1.394 -0.031,7.961 -0.031,8.929 0,0.118 0.016,0.231 0.031,0.344 l 0,0.031 c -0.789,1.399 -0.031,7.961 -0.031,8.934 0,0.113 0.016,0.23 0.031,0.344 l 0,0.062 c -0.789,1.395 -0.031,7.926 -0.031,8.899 0,4.023 8.574,7.304 19.172,7.304 10.598,0 19.207,-3.281 19.207,-7.304 0,-0.668 0.262,-5.938 0,-8.246 0.008,-0.086 0,-0.161 0,-0.25 0,-0.137 -0.043,-0.27 -0.062,-0.403 0.019,-0.136 0.062,-0.269 0.062,-0.406 0,-0.672 0.262,-5.941 0,-8.246 0.008,-0.086 0,-0.16 0,-0.25 0,-0.137 -0.043,-0.27 -0.062,-0.406 0.019,-0.133 0.062,-0.27 0.062,-0.407 0,-0.668 0.262,-5.937 0,-8.242 0.008,-0.086 0,-0.164 0,-0.25 0,-4.023 -8.609,-7.277 -19.207,-7.277 z" style="fill:#fff;fill-opacity:1;fill-rule:evenodd;stroke:#00c600;stroke-width:2.99779391;stroke-linecap:butt;stroke-linejoin:miter;stroke-miterlimit:4;stroke-dasharray:none;stroke-opacity:1"/></g><g style="stroke:#00c600;stroke-opacity:1" id="g6132" transform="matrix(1,0,0,-1,0,265)"><path id="path6134" d="m 444.645,22.676 c 0,4.023 -8.594,7.285 -19.192,7.285 -10.598,0 -19.187,-3.262 -19.187,-7.285" style="fill:none;stroke:#00c600;stroke-width:1.99852896;stroke-linecap:butt;stroke-linejoin:miter;stroke-miterlimit:4;stroke-dasharray:none;stroke-opacity:1"/></g><g style="stroke:#00c600;stroke-opacity:1" id="g6136" transform="matrix(1,0,0,-1,0,265)"><path id="path6138" d="m 444.941,32.668 c 0,4.023 -8.589,7.285 -19.187,7.285 -10.598,0 -19.188,-3.262 -19.188,-7.285" style="fill:none;stroke:#00c600;stroke-width:1.99852896;stroke-linecap:butt;stroke-linejoin:miter;stroke-miterlimit:4;stroke-dasharray:none;stroke-opacity:1"/></g><g style="stroke:#00c600;stroke-opacity:1" id="g6140" transform="matrix(1,0,0,-1,0,265)"><path id="path6142" d="m 444.645,42.66 c 0,4.024 -8.594,7.285 -19.192,7.285 -10.598,0 -19.187,-3.261 -19.187,-7.285" style="fill:none;stroke:#00c600;stroke-width:1.99852896;stroke-linecap:butt;stroke-linejoin:miter;stroke-miterlimit:4;stroke-dasharray:none;stroke-opacity:1"/></g></g><g style="stroke:#00c600;stroke-opacity:1" id="g7045" transform="translate(453.14223,221.07363)"><g style="stroke:#00c600;stroke-opacity:1" id="g7047" transform="matrix(1,0,0,-1,-242.14379,276.89516)"><path style="fill:#fff;fill-opacity:1;fill-rule:nonzero;stroke:#00c600;stroke-width:2.56601191;stroke-linecap:butt;stroke-linejoin:miter;stroke-miterlimit:4;stroke-dasharray:none;stroke-opacity:1" id="path7049" d="m 102.102,126.621 12.203,0 c 3.433,0 6.218,2.785 6.218,6.219 l 0,30.566 c 0,3.438 -2.785,6.223 -6.218,6.223 l -12.203,0 c -3.438,0 -6.223,-2.785 -6.223,-6.223 l 0,-30.566 c 0,-3.434 2.785,-6.219 6.223,-6.219 z"/></g><path style="fill:#555753;fill-opacity:1;fill-rule:nonzero;stroke:#00c600;stroke-opacity:1" id="path7051" d="m -129.50679,114.41816 0,3.368 c 0,0.754 0.613,1.363 1.367,1.363 l 2.215,0 c 0.758,0 1.367,-0.609 1.367,-1.363 l 0,-3.368 c 0,-0.753 -0.609,-1.367 -1.367,-1.367 l -2.215,0 c -0.754,0 -1.367,0.614 -1.367,1.367 z"/><path style="fill:#555753;fill-opacity:1;fill-rule:nonzero;stroke:#00c600;stroke-opacity:1" id="path7053" d="m -141.92879,143.09016 16.691,0 c 0.219,0 0.395,-0.175 0.395,-0.394 l 0,-1.031 c 0,-0.223 -0.176,-0.399 -0.395,-0.399 l -16.691,0 c -0.219,0 -0.399,0.176 -0.399,0.399 l 0,1.031 c 0,0.219 0.18,0.394 0.399,0.394 z"/><path style="fill:#555753;fill-opacity:1;fill-rule:nonzero;stroke:#00c600;stroke-opacity:1" id="path7055" d="m -141.92879,137.01616 16.691,0 c 0.219,0 0.395,-0.18 0.395,-0.398 l 0,-1.032 c 0,-0.218 -0.176,-0.394 -0.395,-0.394 l -16.691,0 c -0.219,0 -0.399,0.176 -0.399,0.394 l 0,1.032 c 0,0.218 0.18,0.398 0.399,0.398 z"/></g><g id="g7091" transform="translate(-107.77553,33.508941)"><g id="g7093" transform="matrix(1,0,0,-1,0,265)"><path style="fill:#fff;fill-opacity:1;fill-rule:nonzero;stroke:#555753;stroke-width:2.99779391;stroke-linecap:butt;stroke-linejoin:miter;stroke-miterlimit:4;stroke-dasharray:none;stroke-opacity:1" id="path7095" d="m 397.332,149.691 1.996,-9.027 c 0,-1.066 1.496,-1.922 3.356,-1.922 l 45.464,0 c 1.86,0 3.356,0.856 3.356,1.922 l 1.996,9.027 c 0,1.067 -1.496,1.922 -3.352,1.922 l -49.464,0 c -1.856,0 -3.352,-0.855 -3.352,-1.922 z"/></g><g id="g7097" transform="matrix(1,0,0,-1,0,265)"><path style="fill:#fff;fill-opacity:1;fill-rule:nonzero;stroke:#555753;stroke-width:2.99779391;stroke-linecap:butt;stroke-linejoin:miter;stroke-miterlimit:4;stroke-dasharray:none;stroke-opacity:1" id="path7099" d="m 397.332,161.375 0,-10.508 c 0,-1.242 1.496,-2.238 3.352,-2.238 l 49.464,0 c 1.856,0 3.352,0.996 3.352,2.238 l 0,10.508 c 0,1.238 -1.496,2.234 -3.352,2.234 l -49.464,0 c -1.856,0 -3.352,-0.996 -3.352,-2.234 z"/></g><path style="fill:#555753;fill-opacity:1;fill-rule:evenodd;stroke:none" id="path7101" d="m 448.797,111.598 c 0,-0.789 -0.668,-1.426 -1.488,-1.426 -0.825,0 -1.493,0.637 -1.493,1.426 0,0.785 0.668,1.422 1.493,1.422 0.82,0 1.488,-0.637 1.488,-1.422 z"/><path style="fill:#555753;fill-opacity:1;fill-rule:nonzero;stroke:none" id="path7103" d="m 400.43,112.789 c -0.082,0 -0.153,-0.133 -0.18,-0.312 -0.012,-0.059 -0.016,-0.118 -0.016,-0.188 0,-0.008 0,-0.019 0,-0.031 l 0,-2.903 c 0,-0.277 0.086,-0.5 0.196,-0.5 l 12.511,0 c 0.106,0 0.192,0.223 0.192,0.5 l 0,2.903 c 0,0.07 0,0.16 -0.012,0.219 -0.031,0.179 -0.101,0.312 -0.18,0.312 l -12.511,0 z"/><path style="fill:#555753;fill-opacity:1;fill-rule:nonzero;stroke:none" id="path7105" d="m 415.219,112.98 c -0.082,0 -0.153,-0.132 -0.18,-0.312 -0.012,-0.063 -0.016,-0.117 -0.016,-0.188 0,-0.011 0,-0.023 0,-0.031 l 0,-2.906 c 0,-0.277 0.086,-0.5 0.196,-0.5 l 12.511,0 c 0.106,0 0.192,0.223 0.192,0.5 l 0,2.906 c 0,0.071 0,0.156 -0.012,0.219 -0.031,0.18 -0.101,0.312 -0.18,0.312 l -12.511,0 z"/><path style="fill:#555753;fill-opacity:1;fill-rule:evenodd;stroke:none" id="path7107" d="m 443.902,111.656 c 0,-0.785 -0.668,-1.426 -1.492,-1.426 -0.824,0 -1.492,0.641 -1.492,1.426 0,0.785 0.668,1.426 1.492,1.426 0.824,0 1.492,-0.641 1.492,-1.426 z"/><g id="g7111" transform="matrix(1,0,0,-1,0,265)"><path style="fill:#fff;fill-opacity:1;fill-rule:nonzero;stroke:#555753;stroke-width:2.99779391;stroke-linecap:butt;stroke-linejoin:miter;stroke-miterlimit:4;stroke-dasharray:none;stroke-opacity:1" id="path7113" d="m 397.332,129.707 1.996,-9.027 c 0,-1.067 1.496,-1.922 3.356,-1.922 l 45.464,0 c 1.86,0 3.356,0.855 3.356,1.922 l 1.996,9.027 c 0,1.063 -1.496,1.922 -3.352,1.922 l -49.464,0 c -1.856,0 -3.352,-0.859 -3.352,-1.922 z"/></g><g id="g7115" transform="matrix(1,0,0,-1,0,265)"><path style="fill:#fff;fill-opacity:1;fill-rule:nonzero;stroke:#555753;stroke-width:2.99779391;stroke-linecap:butt;stroke-linejoin:miter;stroke-miterlimit:4;stroke-dasharray:none;stroke-opacity:1" id="path7117" d="m 397.332,141.387 0,-10.508 c 0,-1.238 1.496,-2.234 3.352,-2.234 l 49.464,0 c 1.856,0 3.352,0.996 3.352,2.234 l 0,10.508 c 0,1.242 -1.496,2.238 -3.352,2.238 l -49.464,0 c -1.856,0 -3.352,-0.996 -3.352,-2.238 z"/></g><path style="fill:#555753;fill-opacity:1;fill-rule:evenodd;stroke:none" id="path7119" d="m 448.797,131.582 c 0,-0.785 -0.668,-1.426 -1.488,-1.426 -0.825,0 -1.493,0.641 -1.493,1.426 0,0.785 0.668,1.422 1.493,1.422 0.82,0 1.488,-0.637 1.488,-1.422 z"/><path style="fill:#555753;fill-opacity:1;fill-rule:nonzero;stroke:none" id="path7121" d="m 400.43,132.773 c -0.082,0 -0.153,-0.128 -0.18,-0.312 -0.012,-0.059 -0.016,-0.117 -0.016,-0.188 0,-0.007 0,-0.019 0,-0.031 l 0,-2.902 c 0,-0.278 0.086,-0.5 0.196,-0.5 l 12.511,0 c 0.106,0 0.192,0.222 0.192,0.5 l 0,2.902 c 0,0.07 0,0.16 -0.012,0.219 -0.031,0.184 -0.101,0.312 -0.18,0.312 l -12.511,0 z"/><path style="fill:#555753;fill-opacity:1;fill-rule:nonzero;stroke:none" id="path7123" d="m 415.219,132.965 c -0.082,0 -0.153,-0.133 -0.18,-0.313 -0.012,-0.058 -0.016,-0.117 -0.016,-0.187 0,-0.012 0,-0.02 0,-0.031 l 0,-2.903 c 0,-0.277 0.086,-0.5 0.196,-0.5 l 12.511,0 c 0.106,0 0.192,0.223 0.192,0.5 l 0,2.903 c 0,0.07 0,0.16 -0.012,0.218 -0.031,0.18 -0.101,0.313 -0.18,0.313 l -12.511,0 z"/><path style="fill:#555753;fill-opacity:1;fill-rule:evenodd;stroke:none" id="path7125" d="m 443.902,131.641 c 0,-0.786 -0.668,-1.422 -1.492,-1.422 -0.824,0 -1.492,0.636 -1.492,1.422 0,0.789 0.668,1.425 1.492,1.425 0.824,0 1.492,-0.636 1.492,-1.425 z"/></g><g id="g7127" transform="translate(-104.65758,-55.862977)"><g id="g7129" transform="matrix(1,0,0,-1,0,265)"><path id="path7131" d="m 397.332,149.691 1.996,-9.027 c 0,-1.066 1.496,-1.922 3.356,-1.922 l 45.464,0 c 1.86,0 3.356,0.856 3.356,1.922 l 1.996,9.027 c 0,1.067 -1.496,1.922 -3.352,1.922 l -49.464,0 c -1.856,0 -3.352,-0.855 -3.352,-1.922 z" style="fill:#fff;fill-opacity:1;fill-rule:nonzero;stroke:#555753;stroke-width:2.99779391;stroke-linecap:butt;stroke-linejoin:miter;stroke-miterlimit:4;stroke-dasharray:none;stroke-opacity:1"/></g><g id="g7133" transform="matrix(1,0,0,-1,0,265)"><path id="path7135" d="m 397.332,161.375 0,-10.508 c 0,-1.242 1.496,-2.238 3.352,-2.238 l 49.464,0 c 1.856,0 3.352,0.996 3.352,2.238 l 0,10.508 c 0,1.238 -1.496,2.234 -3.352,2.234 l -49.464,0 c -1.856,0 -3.352,-0.996 -3.352,-2.234 z" style="fill:#fff;fill-opacity:1;fill-rule:nonzero;stroke:#555753;stroke-width:2.99779391;stroke-linecap:butt;stroke-linejoin:miter;stroke-miterlimit:4;stroke-dasharray:none;stroke-opacity:1"/></g><path id="path7137" d="m 448.797,111.598 c 0,-0.789 -0.668,-1.426 -1.488,-1.426 -0.825,0 -1.493,0.637 -1.493,1.426 0,0.785 0.668,1.422 1.493,1.422 0.82,0 1.488,-0.637 1.488,-1.422 z" style="fill:#555753;fill-opacity:1;fill-rule:evenodd;stroke:none"/><path id="path7139" d="m 400.43,112.789 c -0.082,0 -0.153,-0.133 -0.18,-0.312 -0.012,-0.059 -0.016,-0.118 -0.016,-0.188 0,-0.008 0,-0.019 0,-0.031 l 0,-2.903 c 0,-0.277 0.086,-0.5 0.196,-0.5 l 12.511,0 c 0.106,0 0.192,0.223 0.192,0.5 l 0,2.903 c 0,0.07 0,0.16 -0.012,0.219 -0.031,0.179 -0.101,0.312 -0.18,0.312 l -12.511,0 z" style="fill:#555753;fill-opacity:1;fill-rule:nonzero;stroke:none"/><path id="path7141" d="m 415.219,112.98 c -0.082,0 -0.153,-0.132 -0.18,-0.312 -0.012,-0.063 -0.016,-0.117 -0.016,-0.188 0,-0.011 0,-0.023 0,-0.031 l 0,-2.906 c 0,-0.277 0.086,-0.5 0.196,-0.5 l 12.511,0 c 0.106,0 0.192,0.223 0.192,0.5 l 0,2.906 c 0,0.071 0,0.156 -0.012,0.219 -0.031,0.18 -0.101,0.312 -0.18,0.312 l -12.511,0 z" style="fill:#555753;fill-opacity:1;fill-rule:nonzero;stroke:none"/><path id="path7143" d="m 443.902,111.656 c 0,-0.785 -0.668,-1.426 -1.492,-1.426 -0.824,0 -1.492,0.641 -1.492,1.426 0,0.785 0.668,1.426 1.492,1.426 0.824,0 1.492,-0.641 1.492,-1.426 z" style="fill:#555753;fill-opacity:1;fill-rule:evenodd;stroke:none"/><g id="g7147" transform="matrix(1,0,0,-1,0,265)"><path id="path7149" d="m 397.332,129.707 1.996,-9.027 c 0,-1.067 1.496,-1.922 3.356,-1.922 l 45.464,0 c 1.86,0 3.356,0.855 3.356,1.922 l 1.996,9.027 c 0,1.063 -1.496,1.922 -3.352,1.922 l -49.464,0 c -1.856,0 -3.352,-0.859 -3.352,-1.922 z" style="fill:#fff;fill-opacity:1;fill-rule:nonzero;stroke:#555753;stroke-width:2.99779391;stroke-linecap:butt;stroke-linejoin:miter;stroke-miterlimit:4;stroke-dasharray:none;stroke-opacity:1"/></g><g id="g7151" transform="matrix(1,0,0,-1,0,265)"><path id="path7153" d="m 397.332,141.387 0,-10.508 c 0,-1.238 1.496,-2.234 3.352,-2.234 l 49.464,0 c 1.856,0 3.352,0.996 3.352,2.234 l 0,10.508 c 0,1.242 -1.496,2.238 -3.352,2.238 l -49.464,0 c -1.856,0 -3.352,-0.996 -3.352,-2.238 z" style="fill:#fff;fill-opacity:1;fill-rule:nonzero;stroke:#555753;stroke-width:2.99779391;stroke-linecap:butt;stroke-linejoin:miter;stroke-miterlimit:4;stroke-dasharray:none;stroke-opacity:1"/></g><path id="path7155" d="m 448.797,131.582 c 0,-0.785 -0.668,-1.426 -1.488,-1.426 -0.825,0 -1.493,0.641 -1.493,1.426 0,0.785 0.668,1.422 1.493,1.422 0.82,0 1.488,-0.637 1.488,-1.422 z" style="fill:#555753;fill-opacity:1;fill-rule:evenodd;stroke:none"/><path id="path7157" d="m 400.43,132.773 c -0.082,0 -0.153,-0.128 -0.18,-0.312 -0.012,-0.059 -0.016,-0.117 -0.016,-0.188 0,-0.007 0,-0.019 0,-0.031 l 0,-2.902 c 0,-0.278 0.086,-0.5 0.196,-0.5 l 12.511,0 c 0.106,0 0.192,0.222 0.192,0.5 l 0,2.902 c 0,0.07 0,0.16 -0.012,0.219 -0.031,0.184 -0.101,0.312 -0.18,0.312 l -12.511,0 z" style="fill:#555753;fill-opacity:1;fill-rule:nonzero;stroke:none"/><path id="path7159" d="m 415.219,132.965 c -0.082,0 -0.153,-0.133 -0.18,-0.313 -0.012,-0.058 -0.016,-0.117 -0.016,-0.187 0,-0.012 0,-0.02 0,-0.031 l 0,-2.903 c 0,-0.277 0.086,-0.5 0.196,-0.5 l 12.511,0 c 0.106,0 0.192,0.223 0.192,0.5 l 0,2.903 c 0,0.07 0,0.16 -0.012,0.218 -0.031,0.18 -0.101,0.313 -0.18,0.313 l -12.511,0 z" style="fill:#555753;fill-opacity:1;fill-rule:nonzero;stroke:none"/><path id="path7161" d="m 443.902,131.641 c 0,-0.786 -0.668,-1.422 -1.492,-1.422 -0.824,0 -1.492,0.636 -1.492,1.422 0,0.789 0.668,1.425 1.492,1.425 0.824,0 1.492,-0.636 1.492,-1.425 z" style="fill:#555753;fill-opacity:1;fill-rule:evenodd;stroke:none"/></g><g style="stroke:#00c600;stroke-opacity:1" id="g7163" transform="translate(593.45003,221.07363)"><g style="stroke:#00c600;stroke-opacity:1" id="g7165" transform="matrix(1,0,0,-1,-242.14379,276.89516)"><path id="path7167" d="m 102.102,126.621 12.203,0 c 3.433,0 6.218,2.785 6.218,6.219 l 0,30.566 c 0,3.438 -2.785,6.223 -6.218,6.223 l -12.203,0 c -3.438,0 -6.223,-2.785 -6.223,-6.223 l 0,-30.566 c 0,-3.434 2.785,-6.219 6.223,-6.219 z" style="fill:#fff;fill-opacity:1;fill-rule:nonzero;stroke:#00c600;stroke-width:2.56601191;stroke-linecap:butt;stroke-linejoin:miter;stroke-miterlimit:4;stroke-dasharray:none;stroke-opacity:1"/></g><path id="path7169" d="m -129.50679,114.41816 0,3.368 c 0,0.754 0.613,1.363 1.367,1.363 l 2.215,0 c 0.758,0 1.367,-0.609 1.367,-1.363 l 0,-3.368 c 0,-0.753 -0.609,-1.367 -1.367,-1.367 l -2.215,0 c -0.754,0 -1.367,0.614 -1.367,1.367 z" style="fill:#555753;fill-opacity:1;fill-rule:nonzero;stroke:#00c600;stroke-opacity:1"/><path id="path7171" d="m -141.92879,143.09016 16.691,0 c 0.219,0 0.395,-0.175 0.395,-0.394 l 0,-1.031 c 0,-0.223 -0.176,-0.399 -0.395,-0.399 l -16.691,0 c -0.219,0 -0.399,0.176 -0.399,0.399 l 0,1.031 c 0,0.219 0.18,0.394 0.399,0.394 z" style="fill:#555753;fill-opacity:1;fill-rule:nonzero;stroke:#00c600;stroke-opacity:1"/><path id="path7173" d="m -141.92879,137.01616 16.691,0 c 0.219,0 0.395,-0.18 0.395,-0.398 l 0,-1.032 c 0,-0.218 -0.176,-0.394 -0.395,-0.394 l -16.691,0 c -0.219,0 -0.399,0.176 -0.399,0.394 l 0,1.032 c 0,0.218 0.18,0.398 0.399,0.398 z" style="fill:#555753;fill-opacity:1;fill-rule:nonzero;stroke:#00c600;stroke-opacity:1"/></g><g style="stroke:#00c600;stroke-opacity:1" id="g7280" transform="translate(1.9487195,-17.702573)"><g style="stroke:#00c600;stroke-opacity:1" id="g7195" transform="matrix(1.0141614,0,0,-0.53042089,-238.51622,321.90722)"><path style="fill:#fff;fill-opacity:1;fill-rule:nonzero;stroke:#00c600;stroke-width:2.99779391;stroke-linecap:butt;stroke-linejoin:miter;stroke-miterlimit:4;stroke-dasharray:none;stroke-opacity:1" id="path7197" d="m 397.332,129.707 1.996,-9.027 c 0,-1.067 1.496,-1.922 3.356,-1.922 l 45.464,0 c 1.86,0 3.356,0.855 3.356,1.922 l 1.996,9.027 c 0,1.063 -1.496,1.922 -3.352,1.922 l -49.464,0 c -1.856,0 -3.352,-0.859 -3.352,-1.922 z"/></g><g style="stroke:#00c600;stroke-opacity:1" id="g7199" transform="matrix(1.0141614,0,0,-0.53042089,-238.51622,321.90722)"><path style="fill:#fff;fill-opacity:1;fill-rule:nonzero;stroke:#00c600;stroke-width:2.99779391;stroke-linecap:butt;stroke-linejoin:miter;stroke-miterlimit:4;stroke-dasharray:none;stroke-opacity:1" id="path7201" d="m 397.332,141.387 0,-10.508 c 0,-1.238 1.496,-2.234 3.352,-2.234 l 49.464,0 c 1.856,0 3.352,0.996 3.352,2.234 l 0,10.508 c 0,1.242 -1.496,2.238 -3.352,2.238 l -49.464,0 c -1.856,0 -3.352,-0.996 -3.352,-2.238 z"/></g><path style="fill:#555753;fill-opacity:1;fill-rule:nonzero;stroke:#00c600;stroke-opacity:1" id="path7205" d="m 167.93642,254.62389 c -0.082,0 -0.153,-0.128 -0.18,-0.312 -0.012,-0.059 -0.016,-0.117 -0.016,-0.188 0,-0.007 0,-0.019 0,-0.031 l 0,-2.902 c 0,-0.278 0.086,-0.5 0.196,-0.5 l 12.511,0 c 0.106,0 0.192,0.222 0.192,0.5 l 0,2.902 c 0,0.07 0,0.16 -0.012,0.219 -0.031,0.184 -0.101,0.312 -0.18,0.312 l -12.511,0 z" transform="matrix(1.0141614,0,0,0.53042089,-2.7302073,116.71342)"/><path style="fill:#555753;fill-opacity:1;fill-rule:nonzero;stroke:#00c600;stroke-opacity:1" id="path7207" d="m 182.72542,254.81589 c -0.082,0 -0.153,-0.133 -0.18,-0.313 -0.012,-0.058 -0.016,-0.117 -0.016,-0.187 0,-0.012 0,-0.02 0,-0.031 l 0,-2.903 c 0,-0.277 0.086,-0.5 0.196,-0.5 l 12.511,0 c 0.106,0 0.192,0.223 0.192,0.5 l 0,2.903 c 0,0.07 0,0.16 -0.012,0.218 -0.031,0.18 -0.101,0.313 -0.18,0.313 l -12.511,0 z" transform="matrix(1.0141614,0,0,0.53042089,-2.7302073,116.71342)"/><g style="stroke:#00c600;stroke-opacity:1" id="g7238" transform="matrix(1.0141614,0,0,0.53042089,-2.9937161,127.39438)"><g style="stroke:#00c600;stroke-opacity:1" id="g7240" transform="matrix(1,0,0,-1,-232.49358,386.85089)"><path id="path7242" d="m 397.332,129.707 1.996,-9.027 c 0,-1.067 1.496,-1.922 3.356,-1.922 l 45.464,0 c 1.86,0 3.356,0.855 3.356,1.922 l 1.996,9.027 c 0,1.063 -1.496,1.922 -3.352,1.922 l -49.464,0 c -1.856,0 -3.352,-0.859 -3.352,-1.922 z" style="fill:#fff;fill-opacity:1;fill-rule:nonzero;stroke:#00c600;stroke-width:2.99779391;stroke-linecap:butt;stroke-linejoin:miter;stroke-miterlimit:4;stroke-dasharray:none;stroke-opacity:1"/></g><g style="stroke:#00c600;stroke-opacity:1" id="g7244" transform="matrix(1,0,0,-1,-232.49358,386.85089)"><path id="path7246" d="m 397.332,141.387 0,-10.508 c 0,-1.238 1.496,-2.234 3.352,-2.234 l 49.464,0 c 1.856,0 3.352,0.996 3.352,2.234 l 0,10.508 c 0,1.242 -1.496,2.238 -3.352,2.238 l -49.464,0 c -1.856,0 -3.352,-0.996 -3.352,-2.238 z" style="fill:#fff;fill-opacity:1;fill-rule:nonzero;stroke:#00c600;stroke-width:2.99779391;stroke-linecap:butt;stroke-linejoin:miter;stroke-miterlimit:4;stroke-dasharray:none;stroke-opacity:1"/></g><path id="path7250" d="m 167.93642,254.62389 c -0.082,0 -0.153,-0.128 -0.18,-0.312 -0.012,-0.059 -0.016,-0.117 -0.016,-0.188 0,-0.007 0,-0.019 0,-0.031 l 0,-2.902 c 0,-0.278 0.086,-0.5 0.196,-0.5 l 12.511,0 c 0.106,0 0.192,0.222 0.192,0.5 l 0,2.902 c 0,0.07 0,0.16 -0.012,0.219 -0.031,0.184 -0.101,0.312 -0.18,0.312 l -12.511,0 z" style="fill:#555753;fill-opacity:1;fill-rule:nonzero;stroke:#00c600;stroke-opacity:1"/><path id="path7252" d="m 182.72542,254.81589 c -0.082,0 -0.153,-0.133 -0.18,-0.313 -0.012,-0.058 -0.016,-0.117 -0.016,-0.187 0,-0.012 0,-0.02 0,-0.031 l 0,-2.903 c 0,-0.277 0.086,-0.5 0.196,-0.5 l 12.511,0 c 0.106,0 0.192,0.223 0.192,0.5 l 0,2.903 c 0,0.07 0,0.16 -0.012,0.218 -0.031,0.18 -0.101,0.313 -0.18,0.313 l -12.511,0 z" style="fill:#555753;fill-opacity:1;fill-rule:nonzero;stroke:#00c600;stroke-opacity:1"/></g><g style="stroke:#00c600;stroke-opacity:1" id="g7256" transform="matrix(1.0141614,0,0,0.53042089,-2.9937161,138.42714)"><g style="stroke:#00c600;stroke-opacity:1" id="g7258" transform="matrix(1,0,0,-1,-232.49358,386.85089)"><path style="fill:#fff;fill-opacity:1;fill-rule:nonzero;stroke:#00c600;stroke-width:2.99779391;stroke-linecap:butt;stroke-linejoin:miter;stroke-miterlimit:4;stroke-dasharray:none;stroke-opacity:1" id="path7260" d="m 397.332,129.707 1.996,-9.027 c 0,-1.067 1.496,-1.922 3.356,-1.922 l 45.464,0 c 1.86,0 3.356,0.855 3.356,1.922 l 1.996,9.027 c 0,1.063 -1.496,1.922 -3.352,1.922 l -49.464,0 c -1.856,0 -3.352,-0.859 -3.352,-1.922 z"/></g><g style="stroke:#00c600;stroke-opacity:1" id="g7262" transform="matrix(1,0,0,-1,-232.49358,386.85089)"><path style="fill:#fff;fill-opacity:1;fill-rule:nonzero;stroke:#00c600;stroke-width:2.99779391;stroke-linecap:butt;stroke-linejoin:miter;stroke-miterlimit:4;stroke-dasharray:none;stroke-opacity:1" id="path7264" d="m 397.332,141.387 0,-10.508 c 0,-1.238 1.496,-2.234 3.352,-2.234 l 49.464,0 c 1.856,0 3.352,0.996 3.352,2.234 l 0,10.508 c 0,1.242 -1.496,2.238 -3.352,2.238 l -49.464,0 c -1.856,0 -3.352,-0.996 -3.352,-2.238 z"/></g><path style="fill:#555753;fill-opacity:1;fill-rule:nonzero;stroke:#00c600;stroke-opacity:1" id="path7268" d="m 167.93642,254.62389 c -0.082,0 -0.153,-0.128 -0.18,-0.312 -0.012,-0.059 -0.016,-0.117 -0.016,-0.188 0,-0.007 0,-0.019 0,-0.031 l 0,-2.902 c 0,-0.278 0.086,-0.5 0.196,-0.5 l 12.511,0 c 0.106,0 0.192,0.222 0.192,0.5 l 0,2.902 c 0,0.07 0,0.16 -0.012,0.219 -0.031,0.184 -0.101,0.312 -0.18,0.312 l -12.511,0 z"/><path style="fill:#555753;fill-opacity:1;fill-rule:nonzero;stroke:#00c600;stroke-opacity:1" id="path7270" d="m 182.72542,254.81589 c -0.082,0 -0.153,-0.133 -0.18,-0.313 -0.012,-0.058 -0.016,-0.117 -0.016,-0.187 0,-0.012 0,-0.02 0,-0.031 l 0,-2.903 c 0,-0.277 0.086,-0.5 0.196,-0.5 l 12.511,0 c 0.106,0 0.192,0.223 0.192,0.5 l 0,2.903 c 0,0.07 0,0.16 -0.012,0.218 -0.031,0.18 -0.101,0.313 -0.18,0.313 l -12.511,0 z"/></g></g><g id="g5010"><g style="stroke:#00c600;stroke-opacity:1" id="g6827" transform="translate(-274.58106,437.46194)"><g style="stroke:#00c600;stroke-opacity:1" id="g6144" transform="matrix(0.76845664,0,0,-0.76845664,79.077411,192.9215)"><path style="fill:#fff;fill-opacity:1;fill-rule:evenodd;stroke:#00c600;stroke-width:2.99779391;stroke-linecap:butt;stroke-linejoin:miter;stroke-miterlimit:4;stroke-dasharray:none;stroke-opacity:1" id="path6146" d="m 340.191,210.797 c -9.699,0 -17.886,6.469 -20.472,15.332 -2.168,-1.344 -4.703,-2.133 -7.446,-2.133 -7.757,0 -14.078,6.234 -14.218,13.957 l -0.032,0 0,2.192 c 0,2.664 2.157,4.816 4.821,4.816 l 62.312,0 c 2.664,0 4.817,-2.152 4.817,-4.816 0.574,-7.399 -3.661,-12.082 -9.809,-15.477 -3.019,-8.105 -10.816,-13.871 -19.976,-13.871 l 0.003,0 z"/></g></g><text style="font-style:normal;font-variant:normal;font-weight:500;font-stretch:normal;font-size:16px;line-height:125%;font-family:Futura;-inkscape-font-specification:'Futura, Medium';text-align:center;letter-spacing:0;word-spacing:0;writing-mode:lr-tb;text-anchor:middle;fill:#007000;fill-opacity:1;stroke:none;stroke-width:1px;stroke-linecap:butt;stroke-linejoin:miter;stroke-opacity:1" id="text7406" x="60.997" y="-417.665" transform="scale(1,-1)" xml:space="preserve"><tspan id="tspan7408" x="60.997" y="-417.665">GitHub</tspan></text></g><text style="font-style:normal;font-variant:normal;font-weight:500;font-stretch:normal;font-size:16px;line-height:125%;font-family:Futura;-inkscape-font-specification:'Futura, Medium';text-align:center;letter-spacing:0;word-spacing:0;writing-mode:lr-tb;text-anchor:middle;fill:#000;fill-opacity:1;stroke:none;stroke-width:1px;stroke-linecap:butt;stroke-linejoin:miter;stroke-opacity:1" id="text4999" x="249.077" y="-498.427" transform="scale(1,-1)" xml:space="preserve"><tspan id="tspan5001" x="249.077" y="-498.427">Core services</tspan></text><g style="stroke:#00c600;stroke-opacity:1" id="g32372" transform="translate(0,8)"><g style="stroke:#00c600;stroke-opacity:1" id="g32275"><g style="stroke:#00c600;stroke-opacity:1" id="g7073" transform="translate(-232.35251,220.8489)"><g style="stroke:#00c600;stroke-opacity:1" id="g7075" transform="matrix(1,0,0,-1,0,265)"><path style="fill:#fff;fill-opacity:1;fill-rule:evenodd;stroke:#00c600;stroke-width:2.99779391;stroke-linecap:butt;stroke-linejoin:miter;stroke-miterlimit:4;stroke-dasharray:none;stroke-opacity:1" id="path7077" d="m 425.457,15.34 c -10.215,0 -18.555,3.019 -19.141,6.84 -0.789,1.394 -0.031,7.961 -0.031,8.929 0,0.118 0.016,0.231 0.031,0.344 l 0,0.031 c -0.789,1.399 -0.031,7.961 -0.031,8.934 0,0.113 0.016,0.23 0.031,0.344 l 0,0.062 c -0.789,1.395 -0.031,7.926 -0.031,8.899 0,4.023 8.574,7.304 19.172,7.304 10.598,0 19.207,-3.281 19.207,-7.304 0,-0.668 0.262,-5.938 0,-8.246 0.008,-0.086 0,-0.161 0,-0.25 0,-0.137 -0.043,-0.27 -0.062,-0.403 0.019,-0.136 0.062,-0.269 0.062,-0.406 0,-0.672 0.262,-5.941 0,-8.246 0.008,-0.086 0,-0.16 0,-0.25 0,-0.137 -0.043,-0.27 -0.062,-0.406 0.019,-0.133 0.062,-0.27 0.062,-0.407 0,-0.668 0.262,-5.937 0,-8.242 0.008,-0.086 0,-0.164 0,-0.25 0,-4.023 -8.609,-7.277 -19.207,-7.277 z"/></g><g style="stroke:#00c600;stroke-opacity:1" id="g7079" transform="matrix(1,0,0,-1,0,265)"><path style="fill:none;stroke:#00c600;stroke-width:1.99852896;stroke-linecap:butt;stroke-linejoin:miter;stroke-miterlimit:4;stroke-dasharray:none;stroke-opacity:1" id="path7081" d="m 444.645,22.676 c 0,4.023 -8.594,7.285 -19.192,7.285 -10.598,0 -19.187,-3.262 -19.187,-7.285"/></g><g style="stroke:#00c600;stroke-opacity:1" id="g7083" transform="matrix(1,0,0,-1,0,265)"><path style="fill:none;stroke:#00c600;stroke-width:1.99852896;stroke-linecap:butt;stroke-linejoin:miter;stroke-miterlimit:4;stroke-dasharray:none;stroke-opacity:1" id="path7085" d="m 444.941,32.668 c 0,4.023 -8.589,7.285 -19.187,7.285 -10.598,0 -19.188,-3.262 -19.188,-7.285"/></g><g style="stroke:#00c600;stroke-opacity:1" id="g7087" transform="matrix(1,0,0,-1,0,265)"><path style="fill:none;stroke:#00c600;stroke-width:1.99852896;stroke-linecap:butt;stroke-linejoin:miter;stroke-miterlimit:4;stroke-dasharray:none;stroke-opacity:1" id="path7089" d="m 444.645,42.66 c 0,4.024 -8.594,7.285 -19.192,7.285 -10.598,0 -19.187,-3.261 -19.187,-7.285"/></g></g><text style="font-style:normal;font-variant:normal;font-weight:500;font-stretch:normal;font-size:16px;line-height:125%;font-family:Futura;-inkscape-font-specification:'Futura, Medium';text-align:center;letter-spacing:0;word-spacing:0;writing-mode:lr-tb;text-anchor:middle;fill:#007000;fill-opacity:1;stroke:none;stroke-width:1px;stroke-linecap:butt;stroke-linejoin:miter;stroke-opacity:1" id="text7410" x="193.797" y="-411.494" transform="scale(1,-1)" xml:space="preserve"><tspan id="tspan7412" x="193.797" y="-411.494">Project DB</tspan></text></g></g><text style="font-style:normal;font-variant:normal;font-weight:500;font-stretch:normal;font-size:16px;line-height:125%;font-family:Futura;-inkscape-font-specification:'Futura, Medium';text-align:center;letter-spacing:0;word-spacing:0;writing-mode:lr-tb;text-anchor:middle;fill:#007000;fill-opacity:1;stroke:none;stroke-width:1px;stroke-linecap:butt;stroke-linejoin:miter;stroke-opacity:1" id="text7414" x="60.997" y="-309.094" transform="scale(1,-1)" xml:space="preserve"><tspan id="tspan7416" x="60.997" y="-309.094">Front-end</tspan><tspan id="tspan7418" x="60.997" y="-289.094">web app</tspan></text><text style="font-style:normal;font-variant:normal;font-weight:500;font-stretch:normal;font-size:16px;line-height:125%;font-family:Futura;-inkscape-font-specification:'Futura, Medium';text-align:center;letter-spacing:0;word-spacing:0;writing-mode:lr-tb;text-anchor:middle;fill:#007000;fill-opacity:1;stroke:none;stroke-width:1px;stroke-linecap:butt;stroke-linejoin:miter;stroke-opacity:1" id="text7420" x="188.823" y="-308.352" transform="scale(1,-1)" xml:space="preserve"><tspan id="tspan7422" x="188.823" y="-308.352">Queue</tspan></text><text id="text7424" x="320.023" y="-308.352" transform="scale(1,-1)" xml:space="preserve" style="font-style:normal;font-variant:normal;font-weight:500;font-stretch:normal;font-size:16px;line-height:125%;font-family:Futura;-inkscape-font-specification:'Futura, Medium';text-align:center;letter-spacing:0;word-spacing:0;writing-mode:lr-tb;text-anchor:middle;fill:#007000;fill-opacity:1;stroke:none;stroke-width:1px;stroke-linecap:butt;stroke-linejoin:miter;stroke-opacity:1"><tspan id="tspan7426" x="320.023" y="-308.352">Back-end</tspan></text><text style="font-style:normal;font-variant:normal;font-weight:500;font-stretch:normal;font-size:16px;line-height:125%;font-family:Futura;-inkscape-font-specification:'Futura, Medium';text-align:center;letter-spacing:0;word-spacing:0;writing-mode:lr-tb;text-anchor:middle;fill:#007000;fill-opacity:1;stroke:none;stroke-width:1px;stroke-linecap:butt;stroke-linejoin:miter;stroke-opacity:1" id="text7428" x="459.224" y="-308.352" transform="scale(1,-1)" xml:space="preserve"><tspan id="tspan7430" x="459.224" y="-308.352">Jenkins</tspan></text><text id="text7432" x="318.011" y="-202.957" transform="scale(1,-1)" xml:space="preserve" style="font-style:normal;font-variant:normal;font-weight:500;font-stretch:normal;font-size:16px;line-height:125%;font-family:Futura;-inkscape-font-specification:'Futura, Medium';text-align:center;letter-spacing:0;word-spacing:0;writing-mode:lr-tb;text-anchor:middle;fill:#007000;fill-opacity:1;stroke:none;stroke-width:1px;stroke-linecap:butt;stroke-linejoin:miter;stroke-opacity:1"><tspan id="tspan7434" x="318.011" y="-202.957">Linux builders</tspan></text><text style="font-style:normal;font-variant:normal;font-weight:500;font-stretch:normal;font-size:16px;line-height:125%;font-family:Futura;-inkscape-font-specification:'Futura, Medium';text-align:center;letter-spacing:0;word-spacing:0;writing-mode:lr-tb;text-anchor:middle;fill:#000;fill-opacity:1;stroke:none;stroke-width:1px;stroke-linecap:butt;stroke-linejoin:miter;stroke-opacity:1" id="text7436" x="318.174" y="-113.919" transform="scale(1,-1)" xml:space="preserve"><tspan id="tspan7438" x="318.174" y="-113.919">Windows builders</tspan></text><text id="text7440" x="319.056" y="-22.4" transform="scale(1,-1)" xml:space="preserve" style="font-style:normal;font-variant:normal;font-weight:500;font-stretch:normal;font-size:16px;line-height:125%;font-family:Futura;-inkscape-font-specification:'Futura, Medium';text-align:center;letter-spacing:0;word-spacing:0;writing-mode:lr-tb;text-anchor:middle;fill:#000;fill-opacity:1;stroke:none;stroke-width:1px;stroke-linecap:butt;stroke-linejoin:miter;stroke-opacity:1"><tspan id="tspan7442" x="319.056" y="-22.4">Mac OSX builders</tspan></text><text style="font-style:normal;font-variant:normal;font-weight:500;font-stretch:normal;font-size:16px;line-height:125%;font-family:Futura;-inkscape-font-specification:'Futura, Medium';text-align:center;letter-spacing:0;word-spacing:0;writing-mode:lr-tb;text-anchor:middle;fill:#007000;fill-opacity:1;stroke:none;stroke-width:1px;stroke-linecap:butt;stroke-linejoin:miter;stroke-opacity:1" id="text7444" x="191.611" y="-202.957" transform="scale(1,-1)" xml:space="preserve"><tspan id="tspan7446" x="191.611" y="-202.957">Linux Docker</tspan><tspan id="tspan7476" x="191.611" y="-182.957">containers</tspan></text><path id="path7486" d="m 59.946078,411.91759 0,-32.8468" style="fill:none;fill-rule:evenodd;stroke:#000;stroke-width:.80000001px;stroke-linecap:butt;stroke-linejoin:miter;stroke-opacity:1;marker-end:url(#Arrow2Lend)"/><path id="path17266" d="m 98.734712,349.09775 c 55.538278,0 55.538278,0 55.538278,0" style="fill:none;fill-rule:evenodd;stroke:#000;stroke-width:.80000001px;stroke-linecap:butt;stroke-linejoin:miter;stroke-opacity:1;marker-end:url(#marker50199)"/><path id="path30720" d="m 285.62542,349.09775 c -58.18295,-0.88156 -58.18295,-0.88156 -58.18295,-0.88156" style="fill:none;fill-rule:evenodd;stroke:#000;stroke-width:.80000001px;stroke-linecap:butt;stroke-linejoin:miter;stroke-opacity:1;marker-end:url(#marker5451)"/><path id="path30752" d="m 358.7949,349.97931 c 62.59076,0 62.59076,0 62.59076,0" style="fill:none;fill-rule:evenodd;stroke:#000;stroke-width:.80000001px;stroke-linecap:butt;stroke-linejoin:miter;stroke-opacity:1;marker-end:url(#marker42659)"/><path id="path32424" d="m 85.51132,380.83391 c 73.16947,61.70919 73.16947,61.70919 73.16947,61.70919" style="fill:none;fill-rule:evenodd;stroke:#000;stroke-width:.80000001px;stroke-linecap:butt;stroke-linejoin:miter;stroke-opacity:1;marker-end:url(#marker50199)"/><path id="path32462" d="m 304.13818,380.83391 -78.45883,64.35387" style="fill:none;fill-rule:evenodd;stroke:#000;stroke-width:.80000001px;stroke-linecap:butt;stroke-linejoin:miter;stroke-opacity:1;marker-end:url(#marker51995)"/><path id="path35630" d="m 460.1743,296.20415 0,-231.850272 -90.80068,0" style="fill:none;fill-rule:evenodd;stroke:#000;stroke-width:.80000001px;stroke-linecap:butt;stroke-linejoin:miter;stroke-opacity:1;marker-end:url(#marker55731)"/><path id="path35650" d="m 459.29274,249.48147 -89.03756,0" style="fill:none;fill-rule:evenodd;stroke:#000;stroke-width:.80000001px;stroke-linecap:butt;stroke-linejoin:miter;stroke-opacity:1;marker-end:url(#marker53839)"/><path id="path40758" d="m 460.1743,156.91768 -92.5638,0" style="fill:none;fill-rule:evenodd;stroke:#000;stroke-width:.80000001px;stroke-linecap:butt;stroke-linejoin:miter;stroke-opacity:1;marker-end:url(#marker53839)"/><path id="path40780" d="m 283.8623,245.95523 -54.65671,0" style="fill:none;fill-rule:evenodd;stroke:#000;stroke-width:.80000001px;stroke-linecap:butt;stroke-linejoin:miter;stroke-opacity:1;marker-end:url(#marker51995)"/><g id="g56720" transform="translate(0,1.0144138)"><g id="g56707" transform="translate(0,-48)"><rect id="rect56701" width="13.223" height="13.223" x="37.026" y="-108.432" transform="scale(1,-1)" style="opacity:1;fill:#007000;fill-opacity:1;fill-rule:evenodd;stroke:none;stroke-width:.80000001;stroke-miterlimit:4;stroke-dasharray:none;stroke-dashoffset:0;stroke-opacity:1"/><text id="text56703" x="59.946" y="-96.972" transform="scale(1,-1)" xml:space="preserve" style="font-style:normal;font-variant:normal;font-weight:500;font-stretch:normal;font-size:24px;line-height:125%;font-family:Futura;-inkscape-font-specification:'Futura, Medium';text-align:start;letter-spacing:0;word-spacing:0;writing-mode:lr-tb;text-anchor:start;fill:#007000;fill-opacity:1;stroke:none;stroke-width:1px;stroke-linecap:butt;stroke-linejoin:miter;stroke-opacity:1"><tspan style="font-style:normal;font-variant:normal;font-weight:500;font-stretch:normal;font-size:16px;line-height:125%;font-family:Futura;-inkscape-font-specification:'Futura, Medium';text-align:start;writing-mode:lr-tb;text-anchor:start;fill:#007000;fill-opacity:1" id="tspan56705" x="59.946" y="-96.972">in operation</tspan></text></g><g id="g56712" transform="translate(0,-72)"><rect style="opacity:1;fill:#000;fill-opacity:1;fill-rule:evenodd;stroke:none;stroke-width:.80000001;stroke-miterlimit:4;stroke-dasharray:none;stroke-dashoffset:0;stroke-opacity:1" id="rect56714" width="13.223" height="13.223" x="37.026" y="-108.432" transform="scale(1,-1)"/><text style="font-style:normal;font-variant:normal;font-weight:500;font-stretch:normal;font-size:24px;line-height:125%;font-family:Futura;-inkscape-font-specification:'Futura, Medium';text-align:start;letter-spacing:0;word-spacing:0;writing-mode:lr-tb;text-anchor:start;fill:#000;fill-opacity:1;stroke:none;stroke-width:1px;stroke-linecap:butt;stroke-linejoin:miter;stroke-opacity:1" id="text56716" x="59.946" y="-96.972" transform="scale(1,-1)" xml:space="preserve"><tspan id="tspan56718" x="59.946" y="-96.972" style="font-style:normal;font-variant:normal;font-weight:500;font-stretch:normal;font-size:16px;line-height:125%;font-family:Futura;-inkscape-font-specification:'Futura, Medium';text-align:start;writing-mode:lr-tb;text-anchor:start">to be implemented</tspan></text></g></g><text style="font-style:normal;font-variant:normal;font-weight:500;font-stretch:normal;font-size:24px;line-height:125%;font-family:Futura;-inkscape-font-specification:'Futura, Medium';text-align:start;letter-spacing:0;word-spacing:0;writing-mode:lr-tb;text-anchor:start;fill:#000;fill-opacity:1;stroke:none;stroke-width:1px;stroke-linecap:butt;stroke-linejoin:miter;stroke-opacity:1" id="text4995" x="267.277" y="-546.61" transform="scale(1,-1)" xml:space="preserve"><tspan style="font-style:normal;font-variant:normal;font-weight:700;font-stretch:condensed;font-size:48px;font-family:'PT Sans Narrow';-inkscape-font-specification:'PT Sans Narrow Bold Condensed'" id="tspan4997" x="267.277" y="-546.61">r-hub architecture</tspan></text><text style="font-style:normal;font-variant:normal;font-weight:500;font-stretch:normal;font-size:16px;line-height:125%;font-family:Futura;-inkscape-font-specification:'Futura, Medium';text-align:center;letter-spacing:0;word-spacing:0;writing-mode:lr-tb;text-anchor:middle;fill:#000;fill-opacity:1;stroke:none;stroke-width:1px;stroke-linecap:butt;stroke-linejoin:miter;stroke-opacity:1" id="text5021" x="646.921" y="-498.427" transform="scale(1,-1)" xml:space="preserve"><tspan id="tspan5023" x="646.921" y="-498.427">Background services</tspan></text></g></svg>